<?xml version="1.0" encoding="UTF-8" standalone="no"?>
<!DOCTYPE svg PUBLIC "-//W3C//DTD SVG 1.1//EN"
 "http://www.w3.org/Graphics/SVG/1.1/DTD/svg11.dtd">
<!-- Generated by graphviz version 2.38.0 (20140413.2041)
 -->
<!-- Title: %3 Pages: 1 -->
<svg width="203pt" height="215pt"
 viewBox="0.00 0.00 202.69 215.38" xmlns="http://www.w3.org/2000/svg" xmlns:xlink="http://www.w3.org/1999/xlink">
<g id="graph0" class="graph" transform="scale(1 1) rotate(0) translate(4 211.38)">
<title>%3</title>
<polygon fill="white" stroke="none" points="-4,4 -4,-211.38 198.69,-211.38 198.69,4 -4,4"/>
<!-- A -->
<g id="node1" class="node"><title>A</title>
<polygon fill="lightgray" stroke="black" points="100.713,-207.38 77.7132,-207.38 77.7132,-189.38 100.713,-189.38 100.713,-207.38"/>
<text text-anchor="middle" x="89.2132" y="-196.18" font-family="Times New Roman,serif" font-size="9.00">A</text>
</g>
<!-- A XOR B -->
<g id="node3" class="node"><title>A XOR B</title>
<ellipse fill="lightblue" stroke="black" cx="157.213" cy="-37.4767" rx="37.4533" ry="37.4533"/>
<text text-anchor="middle" x="157.213" y="-35.2767" font-family="Times New Roman,serif" font-size="9.00">A XOR B</text>
</g>
<!-- A&#45;&gt;A XOR B -->
<g id="edge1" class="edge"><title>A&#45;&gt;A XOR B</title>
<path fill="none" stroke="red" stroke-width="0.375692" d="M92.6788,-189.281C101.027,-169.774 122.737,-119.042 138.68,-81.785"/>
<polygon fill="red" stroke="red" stroke-width="0.375692" points="142.086,-82.7222 142.803,-72.1516 135.65,-79.9682 142.086,-82.7222"/>
</g>
<!-- 385 -->
<g id="node4" class="node"><title>385</title>
<ellipse fill="white" stroke="black" cx="157.213" cy="-132.167" rx="21.4286" ry="21.4286"/>
<text text-anchor="middle" x="157.213" y="-129.967" font-family="Times New Roman,serif" font-size="9.00">385</text>
</g>
<!-- A&#45;&gt;385 -->
<g id="edge7" class="edge"><title>A&#45;&gt;385</title>
<path fill="none" stroke="green" stroke-width="0.699704" d="M97.8255,-189.247C107.059,-180.527 122.097,-166.327 134.73,-154.398"/>
<polygon fill="green" stroke="green" stroke-width="0.699704" points="137.344,-156.743 142.211,-147.333 132.538,-151.654 137.344,-156.743"/>
</g>
<!-- 756 -->
<g id="node5" class="node"><title>756</title>
<ellipse fill="white" stroke="black" cx="21.2132" cy="-132.167" rx="21.4286" ry="21.4286"/>
<text text-anchor="middle" x="21.2132" y="-129.967" font-family="Times New Roman,serif" font-size="9.00">756</text>
</g>
<!-- A&#45;&gt;756 -->
<g id="edge5" class="edge"><title>A&#45;&gt;756</title>
<path fill="none" stroke="green" stroke-width="0.125387" d="M80.601,-189.247C71.3672,-180.527 56.3291,-166.327 43.6964,-154.398"/>
<polygon fill="green" stroke="green" stroke-width="0.125387" points="45.8887,-151.654 36.215,-147.333 41.0826,-156.743 45.8887,-151.654"/>
</g>
<!-- 661 -->
<g id="node6" class="node"><title>661</title>
<ellipse fill="white" stroke="black" cx="45.2132" cy="-37.4767" rx="21.4286" ry="21.4286"/>
<text text-anchor="middle" x="45.2132" y="-35.2767" font-family="Times New Roman,serif" font-size="9.00">661</text>
</g>
<!-- A&#45;&gt;661 -->
<g id="edge4" class="edge"><title>A&#45;&gt;661</title>
<path fill="none" stroke="green" stroke-width="0.480316" stroke-dasharray="1,5" d="M86.9707,-189.281C80.8559,-167.198 63.6603,-105.097 53.3416,-67.8318"/>
<polygon fill="green" stroke="green" stroke-width="0.480316" points="56.6702,-66.7368 50.6284,-58.0334 49.924,-68.6048 56.6702,-66.7368"/>
</g>
<!-- B -->
<g id="node2" class="node"><title>B</title>
<polygon fill="lightgray" stroke="black" points="192.713,-207.38 169.713,-207.38 169.713,-189.38 192.713,-189.38 192.713,-207.38"/>
<text text-anchor="middle" x="181.213" y="-196.18" font-family="Times New Roman,serif" font-size="9.00">B</text>
</g>
<!-- B&#45;&gt;A XOR B -->
<g id="edge8" class="edge"><title>B&#45;&gt;A XOR B</title>
<path fill="none" stroke="red" stroke-width="0.247436" d="M183.206,-189.186C186.653,-173.73 192.844,-139.277 187.213,-110.953 185.202,-100.836 181.754,-90.3597 177.896,-80.6236"/>
<polygon fill="red" stroke="red" stroke-width="0.247436" points="181.031,-79.0467 173.94,-71.1746 174.574,-81.7505 181.031,-79.0467"/>
</g>
<!-- B&#45;&gt;385 -->
<g id="edge2" class="edge"><title>B&#45;&gt;385</title>
<path fill="none" stroke="green" stroke-width="0.321489" d="M178.174,-189.247C175.555,-182.24 171.612,-171.692 167.851,-161.629"/>
<polygon fill="green" stroke="green" stroke-width="0.321489" points="171.129,-160.402 164.35,-152.26 164.572,-162.853 171.129,-160.402"/>
</g>
<!-- 385&#45;&gt;A XOR B -->
<g id="edge3" class="edge"><title>385&#45;&gt;A XOR B</title>
<path fill="none" stroke="green" stroke-width="0.812578" d="M157.213,-110.596C157.213,-103 157.213,-94.0512 157.213,-85.0886"/>
<polygon fill="green" stroke="green" stroke-width="0.812578" points="160.713,-85.0353 157.213,-75.0353 153.713,-85.0353 160.713,-85.0353"/>
</g>
<!-- 756&#45;&gt;661 -->
<g id="edge6" class="edge"><title>756&#45;&gt;661</title>
<path fill="none" stroke="green" stroke-width="0.245993" d="M26.303,-111.509C29.5804,-98.8518 33.901,-82.1653 37.5849,-67.9379"/>
<polygon fill="green" stroke="green" stroke-width="0.245993" points="41.0123,-68.6636 40.1308,-58.1055 34.2358,-66.9089 41.0123,-68.6636"/>
</g>
</g>
</svg>
