<?xml version="1.0" encoding="UTF-8" standalone="no"?>
<!DOCTYPE svg PUBLIC "-//W3C//DTD SVG 1.1//EN"
 "http://www.w3.org/Graphics/SVG/1.1/DTD/svg11.dtd">
<!-- Generated by graphviz version 2.38.0 (20140413.2041)
 -->
<!-- Title: %3 Pages: 1 -->
<svg width="297pt" height="339pt"
 viewBox="0.00 0.00 297.50 339.45" xmlns="http://www.w3.org/2000/svg" xmlns:xlink="http://www.w3.org/1999/xlink">
<g id="graph0" class="graph" transform="scale(1 1) rotate(0) translate(4 335.446)">
<title>%3</title>
<polygon fill="white" stroke="none" points="-4,4 -4,-335.446 293.497,-335.446 293.497,4 -4,4"/>
<!-- A -->
<g id="node1" class="node"><title>A</title>
<polygon fill="lightgray" stroke="black" points="57.2487,-230.2 34.2487,-230.2 34.2487,-212.2 57.2487,-212.2 57.2487,-230.2"/>
<text text-anchor="middle" x="45.7487" y="-219" font-family="Times New Roman,serif" font-size="9.00">A</text>
</g>
<!-- 1637 -->
<g id="node5" class="node"><title>1637</title>
<ellipse fill="white" stroke="black" cx="91.7487" cy="-135.702" rx="25" ry="25"/>
<text text-anchor="middle" x="91.7487" y="-133.502" font-family="Times New Roman,serif" font-size="9.00">1637</text>
</g>
<!-- A&#45;&gt;1637 -->
<g id="edge6" class="edge"><title>A&#45;&gt;1637</title>
<path fill="none" stroke="red" stroke-width="0.486002" d="M50.1594,-212.193C55.874,-201.821 66.1614,-183.147 75.0745,-166.968"/>
<polygon fill="red" stroke="red" stroke-width="0.486002" points="78.3589,-168.26 80.1187,-157.812 72.2277,-164.882 78.3589,-168.26"/>
</g>
<!-- 1449 -->
<g id="node6" class="node"><title>1449</title>
<ellipse fill="white" stroke="black" cx="24.7487" cy="-135.702" rx="25" ry="25"/>
<text text-anchor="middle" x="24.7487" y="-133.502" font-family="Times New Roman,serif" font-size="9.00">1449</text>
</g>
<!-- A&#45;&gt;1449 -->
<g id="edge9" class="edge"><title>A&#45;&gt;1449</title>
<path fill="none" stroke="green" stroke-width="0.170252" d="M43.7352,-212.193C41.2762,-202.416 36.9624,-185.265 33.0676,-169.778"/>
<polygon fill="green" stroke="green" stroke-width="0.170252" points="36.4258,-168.781 30.5923,-159.936 29.6372,-170.488 36.4258,-168.781"/>
</g>
<!-- B -->
<g id="node2" class="node"><title>B</title>
<polygon fill="lightgray" stroke="black" points="182.249,-315.697 159.249,-315.697 159.249,-297.697 182.249,-297.697 182.249,-315.697"/>
<text text-anchor="middle" x="170.749" y="-304.497" font-family="Times New Roman,serif" font-size="9.00">B</text>
</g>
<!-- A XOR B -->
<g id="node3" class="node"><title>A XOR B</title>
<ellipse fill="lightblue" stroke="black" cx="144.749" cy="-37.4767" rx="37.4533" ry="37.4533"/>
<text text-anchor="middle" x="144.749" y="-35.2767" font-family="Times New Roman,serif" font-size="9.00">A XOR B</text>
</g>
<!-- B&#45;&gt;A XOR B -->
<g id="edge1" class="edge"><title>B&#45;&gt;A XOR B</title>
<path fill="none" stroke="green" stroke-width="0.139719" stroke-dasharray="1,5" d="M169.733,-297.586C168.309,-286.102 165.678,-264.438 163.749,-245.948 157.987,-190.73 152.304,-127.142 148.677,-85.0718"/>
<polygon fill="green" stroke="green" stroke-width="0.139719" points="152.142,-84.5218 147.8,-74.8578 145.168,-85.1205 152.142,-84.5218"/>
</g>
<!-- B&#45;&gt;1637 -->
<g id="edge2" class="edge"><title>B&#45;&gt;1637</title>
<path fill="none" stroke="green" stroke-width="0.435497" d="M164.366,-297.588C155.83,-286.453 140.628,-265.572 130.749,-245.948 118.34,-221.302 108.043,-191.744 101.151,-169.591"/>
<polygon fill="green" stroke="green" stroke-width="0.435497" points="104.486,-168.528 98.2282,-159.979 97.7882,-170.564 104.486,-168.528"/>
</g>
<!-- 1066 -->
<g id="node7" class="node"><title>1066</title>
<ellipse fill="white" stroke="black" cx="264.749" cy="-221.2" rx="25" ry="25"/>
<text text-anchor="middle" x="264.749" y="-219" font-family="Times New Roman,serif" font-size="9.00">1066</text>
</g>
<!-- B&#45;&gt;1066 -->
<g id="edge7" class="edge"><title>B&#45;&gt;1066</title>
<path fill="none" stroke="red" stroke-width="0.509363" stroke-dasharray="1,5" d="M179.762,-297.691C193.251,-285.709 219.21,-262.65 238.905,-245.156"/>
<polygon fill="red" stroke="red" stroke-width="0.509363" points="241.488,-247.543 246.64,-238.285 236.839,-242.309 241.488,-247.543"/>
</g>
<!-- 1936 -->
<g id="node9" class="node"><title>1936</title>
<ellipse fill="white" stroke="black" cx="197.749" cy="-221.2" rx="25" ry="25"/>
<text text-anchor="middle" x="197.749" y="-219" font-family="Times New Roman,serif" font-size="9.00">1936</text>
</g>
<!-- B&#45;&gt;1936 -->
<g id="edge4" class="edge"><title>B&#45;&gt;1936</title>
<path fill="none" stroke="red" stroke-width="0.362524" d="M173.338,-297.691C176.521,-287.847 182.121,-270.527 187.156,-254.958"/>
<polygon fill="red" stroke="red" stroke-width="0.362524" points="190.605,-255.668 190.351,-245.076 183.944,-253.514 190.605,-255.668"/>
</g>
<!-- 2852 -->
<g id="node4" class="node"><title>2852</title>
<ellipse fill="white" stroke="black" cx="235.749" cy="-135.702" rx="25" ry="25"/>
<text text-anchor="middle" x="235.749" y="-133.502" font-family="Times New Roman,serif" font-size="9.00">2852</text>
</g>
<!-- 2852&#45;&gt;A XOR B -->
<g id="edge12" class="edge"><title>2852&#45;&gt;A XOR B</title>
<path fill="none" stroke="green" stroke-width="0.661788" d="M219.058,-117.053C207.435,-104.763 191.552,-87.9677 177.453,-73.0592"/>
<polygon fill="green" stroke="green" stroke-width="0.661788" points="179.689,-70.3295 170.275,-65.4688 174.603,-75.1393 179.689,-70.3295"/>
</g>
<!-- 1637&#45;&gt;A XOR B -->
<g id="edge3" class="edge"><title>1637&#45;&gt;A XOR B</title>
<path fill="none" stroke="green" stroke-width="2.12357" d="M103.511,-113.347C108.95,-103.473 115.602,-91.3944 121.963,-79.8451"/>
<polygon fill="green" stroke="green" stroke-width="2.12357" points="125.215,-81.1962 126.974,-70.7483 119.084,-77.819 125.215,-81.1962"/>
</g>
<!-- 1449&#45;&gt;A XOR B -->
<g id="edge10" class="edge"><title>1449&#45;&gt;A XOR B</title>
<path fill="none" stroke="green" stroke-width="0.759344" d="M43.7631,-119.455C60.9918,-105.64 86.8568,-84.899 108.097,-67.8671"/>
<polygon fill="green" stroke="green" stroke-width="0.759344" points="110.371,-70.5297 115.983,-61.5432 105.992,-65.0686 110.371,-70.5297"/>
</g>
<!-- 2316 -->
<g id="node8" class="node"><title>2316</title>
<ellipse fill="white" stroke="black" cx="264.749" cy="-306.697" rx="25" ry="25"/>
<text text-anchor="middle" x="264.749" y="-304.497" font-family="Times New Roman,serif" font-size="9.00">2316</text>
</g>
<!-- 2316&#45;&gt;1066 -->
<g id="edge8" class="edge"><title>2316&#45;&gt;1066</title>
<path fill="none" stroke="red" stroke-width="0.324562" d="M264.749,-281.546C264.749,-273.602 264.749,-264.617 264.749,-256.087"/>
<polygon fill="red" stroke="red" stroke-width="0.324562" points="268.249,-256.008 264.749,-246.008 261.249,-256.008 268.249,-256.008"/>
</g>
<!-- 1936&#45;&gt;A XOR B -->
<g id="edge5" class="edge"><title>1936&#45;&gt;A XOR B</title>
<path fill="none" stroke="green" stroke-width="0.461282" stroke-dasharray="1,5" d="M191.036,-197.184C182.736,-168.725 168.419,-119.634 157.899,-83.5667"/>
<polygon fill="green" stroke="green" stroke-width="0.461282" points="161.201,-82.3873 155.041,-73.7672 154.481,-84.3472 161.201,-82.3873"/>
</g>
<!-- 1936&#45;&gt;2852 -->
<g id="edge11" class="edge"><title>1936&#45;&gt;2852</title>
<path fill="none" stroke="green" stroke-width="0.674701" d="M207.733,-198.262C211.965,-188.961 216.975,-177.953 221.58,-167.836"/>
<polygon fill="green" stroke="green" stroke-width="0.674701" points="224.875,-169.045 225.831,-158.494 218.503,-166.145 224.875,-169.045"/>
</g>
</g>
</svg>
