<?xml version="1.0" encoding="utf-8" standalone="no"?>
<!DOCTYPE svg PUBLIC "-//W3C//DTD SVG 1.1//EN"
  "http://www.w3.org/Graphics/SVG/1.1/DTD/svg11.dtd">
<svg xmlns:xlink="http://www.w3.org/1999/xlink" width="432pt" height="288pt" viewBox="0 0 432 288" xmlns="http://www.w3.org/2000/svg" version="1.1">
 <metadata>
  <rdf:RDF xmlns:dc="http://purl.org/dc/elements/1.1/" xmlns:cc="http://creativecommons.org/ns#" xmlns:rdf="http://www.w3.org/1999/02/22-rdf-syntax-ns#">
   <cc:Work>
    <dc:type rdf:resource="http://purl.org/dc/dcmitype/StillImage"/>
    <dc:date>2022-03-04T13:11:40.918019</dc:date>
    <dc:format>image/svg+xml</dc:format>
    <dc:creator>
     <cc:Agent>
      <dc:title>Matplotlib v3.5.1, https://matplotlib.org/</dc:title>
     </cc:Agent>
    </dc:creator>
   </cc:Work>
  </rdf:RDF>
 </metadata>
 <defs>
  <style type="text/css">*{stroke-linejoin: round; stroke-linecap: butt}</style>
 </defs>
 <g id="figure_1">
  <g id="patch_1">
   <path d="M 0 288 
L 432 288 
L 432 0 
L 0 0 
L 0 288 
z
" style="fill: none"/>
  </g>
  <g id="axes_1">
   <g id="patch_2">
    <path d="M 54 252 
L 388.8 252 
L 388.8 34.56 
L 54 34.56 
z
" style="fill: #ffffff"/>
   </g>
   <g id="PolyCollection_1">
    <path d="M 69.218182 47.639098 
L 69.218182 252 
L 71.797535 252 
L 74.376888 252 
L 76.95624 252 
L 79.535593 252 
L 82.114946 252 
L 84.694299 252 
L 87.273652 252 
L 89.853005 252 
L 92.432357 252 
L 95.01171 252 
L 97.591063 252 
L 100.170416 252 
L 102.749769 252 
L 105.329122 252 
L 107.908475 252 
L 110.487827 252 
L 113.06718 252 
L 115.646533 252 
L 118.225886 252 
L 120.805239 252 
L 123.384592 252 
L 125.963945 252 
L 128.543297 252 
L 131.12265 252 
L 133.702003 252 
L 136.281356 252 
L 138.860709 252 
L 141.440062 252 
L 144.019414 252 
L 146.598767 252 
L 149.17812 252 
L 151.757473 252 
L 154.336826 252 
L 156.916179 252 
L 159.495532 252 
L 162.074884 252 
L 164.654237 252 
L 167.23359 252 
L 169.812943 252 
L 172.392296 252 
L 174.971649 252 
L 177.551002 252 
L 180.130354 252 
L 182.709707 252 
L 185.28906 252 
L 187.868413 252 
L 190.447766 252 
L 193.027119 252 
L 195.606471 252 
L 198.185824 252 
L 200.765177 252 
L 203.34453 252 
L 205.923883 252 
L 208.503236 252 
L 211.082589 252 
L 213.661941 252 
L 216.241294 252 
L 218.820647 252 
L 221.4 252 
L 223.979353 252 
L 226.558706 252 
L 229.138059 252 
L 231.717411 252 
L 234.296764 252 
L 236.876117 252 
L 239.45547 252 
L 242.034823 252 
L 244.614176 252 
L 247.193529 252 
L 249.772881 252 
L 252.352234 252 
L 254.931587 252 
L 257.51094 252 
L 260.090293 252 
L 262.669646 252 
L 265.248998 252 
L 267.828351 252 
L 270.407704 252 
L 272.987057 252 
L 275.56641 252 
L 278.145763 252 
L 280.725116 252 
L 283.304468 252 
L 285.883821 252 
L 288.463174 252 
L 291.042527 252 
L 293.62188 252 
L 296.201233 252 
L 298.780586 252 
L 301.359938 252 
L 303.939291 252 
L 306.518644 252 
L 309.097997 252 
L 311.67735 252 
L 314.256703 252 
L 316.836055 252 
L 319.415408 252 
L 321.994761 252 
L 324.574114 252 
L 327.153467 252 
L 329.73282 252 
L 332.312173 252 
L 334.891525 252 
L 337.470878 252 
L 340.050231 252 
L 342.629584 252 
L 345.208937 252 
L 347.78829 252 
L 350.367643 252 
L 352.946995 252 
L 355.526348 252 
L 358.105701 252 
L 360.685054 252 
L 363.264407 252 
L 365.84376 252 
L 368.423112 252 
L 371.002465 252 
L 373.581818 252 
L 373.581818 252 
L 373.581818 252 
L 371.002465 252 
L 368.423112 252 
L 365.84376 252 
L 363.264407 252 
L 360.685054 252 
L 358.105701 252 
L 355.526348 252 
L 352.946995 252 
L 350.367643 252 
L 347.78829 252 
L 345.208937 252 
L 342.629584 252 
L 340.050231 252 
L 337.470878 252 
L 334.891525 252 
L 332.312173 252 
L 329.73282 252 
L 327.153467 252 
L 324.574114 252 
L 321.994761 252 
L 319.415408 252 
L 316.836055 252 
L 314.256703 252 
L 311.67735 252 
L 309.097997 252 
L 306.518644 252 
L 303.939291 252 
L 301.359938 252 
L 298.780586 252 
L 296.201233 252 
L 293.62188 252 
L 291.042527 252 
L 288.463174 252 
L 285.883821 252 
L 283.304468 252 
L 280.725116 252 
L 278.145763 252 
L 275.56641 252 
L 272.987057 252 
L 270.407704 252 
L 267.828351 252 
L 265.248998 252 
L 262.669646 252 
L 260.090293 252 
L 257.51094 252 
L 254.931587 252 
L 252.352234 252 
L 249.772881 252 
L 247.193529 252 
L 244.614176 252 
L 242.034823 252 
L 239.45547 252 
L 236.876117 252 
L 234.296764 252 
L 231.717411 252 
L 229.138059 252 
L 226.558706 252 
L 223.979353 252 
L 221.4 252 
L 218.820647 252 
L 216.241294 252 
L 213.661941 252 
L 211.082589 252 
L 208.503236 252 
L 205.923883 252 
L 203.34453 252 
L 200.765177 252 
L 198.185824 252 
L 195.606471 252 
L 193.027119 252 
L 190.447766 252 
L 187.868413 252 
L 185.28906 252 
L 182.709707 252 
L 180.130354 252 
L 177.551002 252 
L 174.971649 252 
L 172.392296 252 
L 169.812943 252 
L 167.23359 252 
L 164.654237 252 
L 162.074884 252 
L 159.495532 252 
L 156.916179 252 
L 154.336826 252 
L 151.757473 252 
L 149.17812 252 
L 146.598767 252 
L 144.019414 252 
L 141.440062 196.141353 
L 138.860709 187.966917 
L 136.281356 201.590977 
L 133.702003 201.590977 
L 131.12265 186.604511 
L 128.543297 196.141353 
L 125.963945 185.242105 
L 123.384592 196.141353 
L 120.805239 198.866165 
L 118.225886 182.517293 
L 115.646533 192.054135 
L 113.06718 134.833083 
L 110.487827 190.691729 
L 107.908475 168.893233 
L 105.329122 197.503759 
L 102.749769 177.067669 
L 100.170416 182.517293 
L 97.591063 123.933835 
L 95.01171 155.269173 
L 92.432357 115.759398 
L 89.853005 68.075188 
L 87.273652 95.323308 
L 84.694299 89.873684 
L 82.114946 74.887218 
L 79.535593 85.786466 
L 76.95624 87.148872 
L 74.376888 49.001504 
L 71.797535 47.639098 
L 69.218182 47.639098 
z
" clip-path="url(#p3190bd4581)" style="fill: #1f77b4"/>
   </g>
   <g id="PolyCollection_2">
    <path d="M 69.218182 47.639098 
L 69.218182 47.639098 
L 71.797535 47.639098 
L 74.376888 49.001504 
L 76.95624 87.148872 
L 79.535593 85.786466 
L 82.114946 74.887218 
L 84.694299 89.873684 
L 87.273652 95.323308 
L 89.853005 68.075188 
L 92.432357 115.759398 
L 95.01171 155.269173 
L 97.591063 123.933835 
L 100.170416 182.517293 
L 102.749769 177.067669 
L 105.329122 197.503759 
L 107.908475 168.893233 
L 110.487827 190.691729 
L 113.06718 134.833083 
L 115.646533 192.054135 
L 118.225886 182.517293 
L 120.805239 198.866165 
L 123.384592 196.141353 
L 125.963945 185.242105 
L 128.543297 196.141353 
L 131.12265 186.604511 
L 133.702003 201.590977 
L 136.281356 201.590977 
L 138.860709 187.966917 
L 141.440062 196.141353 
L 144.019414 252 
L 146.598767 252 
L 149.17812 252 
L 151.757473 252 
L 154.336826 252 
L 156.916179 252 
L 159.495532 252 
L 162.074884 252 
L 164.654237 252 
L 167.23359 252 
L 169.812943 252 
L 172.392296 252 
L 174.971649 252 
L 177.551002 252 
L 180.130354 252 
L 182.709707 252 
L 185.28906 252 
L 187.868413 252 
L 190.447766 252 
L 193.027119 252 
L 195.606471 252 
L 198.185824 252 
L 200.765177 252 
L 203.34453 252 
L 205.923883 252 
L 208.503236 252 
L 211.082589 252 
L 213.661941 252 
L 216.241294 252 
L 218.820647 252 
L 221.4 252 
L 223.979353 252 
L 226.558706 252 
L 229.138059 252 
L 231.717411 252 
L 234.296764 252 
L 236.876117 252 
L 239.45547 252 
L 242.034823 252 
L 244.614176 252 
L 247.193529 252 
L 249.772881 252 
L 252.352234 252 
L 254.931587 252 
L 257.51094 252 
L 260.090293 252 
L 262.669646 252 
L 265.248998 252 
L 267.828351 252 
L 270.407704 252 
L 272.987057 252 
L 275.56641 252 
L 278.145763 252 
L 280.725116 252 
L 283.304468 252 
L 285.883821 252 
L 288.463174 252 
L 291.042527 252 
L 293.62188 252 
L 296.201233 252 
L 298.780586 252 
L 301.359938 252 
L 303.939291 252 
L 306.518644 252 
L 309.097997 252 
L 311.67735 252 
L 314.256703 252 
L 316.836055 252 
L 319.415408 252 
L 321.994761 252 
L 324.574114 252 
L 327.153467 252 
L 329.73282 252 
L 332.312173 252 
L 334.891525 252 
L 337.470878 252 
L 340.050231 252 
L 342.629584 252 
L 345.208937 252 
L 347.78829 252 
L 350.367643 252 
L 352.946995 252 
L 355.526348 252 
L 358.105701 252 
L 360.685054 252 
L 363.264407 252 
L 365.84376 252 
L 368.423112 252 
L 371.002465 252 
L 373.581818 252 
L 373.581818 252 
L 373.581818 252 
L 371.002465 252 
L 368.423112 252 
L 365.84376 252 
L 363.264407 252 
L 360.685054 252 
L 358.105701 252 
L 355.526348 252 
L 352.946995 252 
L 350.367643 252 
L 347.78829 252 
L 345.208937 252 
L 342.629584 252 
L 340.050231 252 
L 337.470878 252 
L 334.891525 252 
L 332.312173 252 
L 329.73282 252 
L 327.153467 252 
L 324.574114 252 
L 321.994761 252 
L 319.415408 252 
L 316.836055 252 
L 314.256703 252 
L 311.67735 252 
L 309.097997 252 
L 306.518644 252 
L 303.939291 252 
L 301.359938 252 
L 298.780586 252 
L 296.201233 252 
L 293.62188 252 
L 291.042527 252 
L 288.463174 252 
L 285.883821 252 
L 283.304468 252 
L 280.725116 252 
L 278.145763 252 
L 275.56641 252 
L 272.987057 252 
L 270.407704 252 
L 267.828351 252 
L 265.248998 252 
L 262.669646 252 
L 260.090293 252 
L 257.51094 252 
L 254.931587 252 
L 252.352234 252 
L 249.772881 252 
L 247.193529 252 
L 244.614176 252 
L 242.034823 252 
L 239.45547 252 
L 236.876117 252 
L 234.296764 252 
L 231.717411 252 
L 229.138059 252 
L 226.558706 252 
L 223.979353 252 
L 221.4 252 
L 218.820647 252 
L 216.241294 204.315789 
L 213.661941 212.490226 
L 211.082589 226.114286 
L 208.503236 216.577444 
L 205.923883 204.315789 
L 203.34453 190.691729 
L 200.765177 182.517293 
L 198.185824 183.879699 
L 195.606471 155.269173 
L 193.027119 163.443609 
L 190.447766 159.356391 
L 187.868413 141.645113 
L 185.28906 130.745865 
L 182.709707 134.833083 
L 180.130354 136.195489 
L 177.551002 134.833083 
L 174.971649 130.745865 
L 172.392296 145.732331 
L 169.812943 160.718797 
L 167.23359 170.255639 
L 164.654237 129.383459 
L 162.074884 153.906767 
L 159.495532 167.530827 
L 156.916179 207.040602 
L 154.336826 212.490226 
L 151.757473 223.389474 
L 149.17812 205.678195 
L 146.598767 193.416541 
L 144.019414 202.953383 
L 141.440062 159.356391 
L 138.860709 138.920301 
L 136.281356 149.819549 
L 133.702003 162.081203 
L 131.12265 156.631579 
L 128.543297 148.457143 
L 125.963945 141.645113 
L 123.384592 144.369925 
L 120.805239 141.645113 
L 118.225886 144.369925 
L 115.646533 144.369925 
L 113.06718 117.121805 
L 110.487827 77.61203 
L 107.908475 72.162406 
L 105.329122 156.631579 
L 102.749769 110.309774 
L 100.170416 47.639098 
L 97.591063 47.639098 
L 95.01171 47.639098 
L 92.432357 47.639098 
L 89.853005 47.639098 
L 87.273652 47.639098 
L 84.694299 47.639098 
L 82.114946 47.639098 
L 79.535593 47.639098 
L 76.95624 47.639098 
L 74.376888 47.639098 
L 71.797535 47.639098 
L 69.218182 47.639098 
z
" clip-path="url(#p3190bd4581)" style="fill: #ff7f0e"/>
   </g>
   <g id="PolyCollection_3">
    <path d="M 69.218182 47.639098 
L 69.218182 47.639098 
L 71.797535 47.639098 
L 74.376888 47.639098 
L 76.95624 47.639098 
L 79.535593 47.639098 
L 82.114946 47.639098 
L 84.694299 47.639098 
L 87.273652 47.639098 
L 89.853005 47.639098 
L 92.432357 47.639098 
L 95.01171 47.639098 
L 97.591063 47.639098 
L 100.170416 47.639098 
L 102.749769 110.309774 
L 105.329122 156.631579 
L 107.908475 72.162406 
L 110.487827 77.61203 
L 113.06718 117.121805 
L 115.646533 144.369925 
L 118.225886 144.369925 
L 120.805239 141.645113 
L 123.384592 144.369925 
L 125.963945 141.645113 
L 128.543297 148.457143 
L 131.12265 156.631579 
L 133.702003 162.081203 
L 136.281356 149.819549 
L 138.860709 138.920301 
L 141.440062 159.356391 
L 144.019414 202.953383 
L 146.598767 193.416541 
L 149.17812 205.678195 
L 151.757473 223.389474 
L 154.336826 212.490226 
L 156.916179 207.040602 
L 159.495532 167.530827 
L 162.074884 153.906767 
L 164.654237 129.383459 
L 167.23359 170.255639 
L 169.812943 160.718797 
L 172.392296 145.732331 
L 174.971649 130.745865 
L 177.551002 134.833083 
L 180.130354 136.195489 
L 182.709707 134.833083 
L 185.28906 130.745865 
L 187.868413 141.645113 
L 190.447766 159.356391 
L 193.027119 163.443609 
L 195.606471 155.269173 
L 198.185824 183.879699 
L 200.765177 182.517293 
L 203.34453 190.691729 
L 205.923883 204.315789 
L 208.503236 216.577444 
L 211.082589 226.114286 
L 213.661941 212.490226 
L 216.241294 204.315789 
L 218.820647 252 
L 221.4 252 
L 223.979353 252 
L 226.558706 252 
L 229.138059 252 
L 231.717411 252 
L 234.296764 252 
L 236.876117 252 
L 239.45547 252 
L 242.034823 252 
L 244.614176 252 
L 247.193529 252 
L 249.772881 252 
L 252.352234 252 
L 254.931587 252 
L 257.51094 252 
L 260.090293 252 
L 262.669646 252 
L 265.248998 252 
L 267.828351 252 
L 270.407704 252 
L 272.987057 252 
L 275.56641 252 
L 278.145763 252 
L 280.725116 252 
L 283.304468 252 
L 285.883821 252 
L 288.463174 252 
L 291.042527 252 
L 293.62188 252 
L 296.201233 252 
L 298.780586 252 
L 301.359938 252 
L 303.939291 252 
L 306.518644 252 
L 309.097997 252 
L 311.67735 252 
L 314.256703 252 
L 316.836055 252 
L 319.415408 252 
L 321.994761 252 
L 324.574114 252 
L 327.153467 252 
L 329.73282 252 
L 332.312173 252 
L 334.891525 252 
L 337.470878 252 
L 340.050231 252 
L 342.629584 252 
L 345.208937 252 
L 347.78829 252 
L 350.367643 252 
L 352.946995 252 
L 355.526348 252 
L 358.105701 252 
L 360.685054 252 
L 363.264407 252 
L 365.84376 252 
L 368.423112 252 
L 371.002465 252 
L 373.581818 252 
L 373.581818 252 
L 373.581818 252 
L 371.002465 252 
L 368.423112 252 
L 365.84376 252 
L 363.264407 252 
L 360.685054 252 
L 358.105701 252 
L 355.526348 252 
L 352.946995 252 
L 350.367643 252 
L 347.78829 252 
L 345.208937 252 
L 342.629584 252 
L 340.050231 252 
L 337.470878 252 
L 334.891525 252 
L 332.312173 252 
L 329.73282 252 
L 327.153467 252 
L 324.574114 252 
L 321.994761 252 
L 319.415408 252 
L 316.836055 252 
L 314.256703 252 
L 311.67735 252 
L 309.097997 252 
L 306.518644 252 
L 303.939291 252 
L 301.359938 252 
L 298.780586 252 
L 296.201233 252 
L 293.62188 252 
L 291.042527 252 
L 288.463174 252 
L 285.883821 252 
L 283.304468 252 
L 280.725116 252 
L 278.145763 252 
L 275.56641 252 
L 272.987057 252 
L 270.407704 252 
L 267.828351 252 
L 265.248998 252 
L 262.669646 252 
L 260.090293 252 
L 257.51094 252 
L 254.931587 252 
L 252.352234 252 
L 249.772881 252 
L 247.193529 252 
L 244.614176 252 
L 242.034823 252 
L 239.45547 252 
L 236.876117 252 
L 234.296764 252 
L 231.717411 252 
L 229.138059 252 
L 226.558706 252 
L 223.979353 252 
L 221.4 252 
L 218.820647 252 
L 216.241294 204.315789 
L 213.661941 212.490226 
L 211.082589 226.114286 
L 208.503236 216.577444 
L 205.923883 204.315789 
L 203.34453 190.691729 
L 200.765177 182.517293 
L 198.185824 183.879699 
L 195.606471 155.269173 
L 193.027119 163.443609 
L 190.447766 159.356391 
L 187.868413 141.645113 
L 185.28906 130.745865 
L 182.709707 134.833083 
L 180.130354 136.195489 
L 177.551002 134.833083 
L 174.971649 130.745865 
L 172.392296 145.732331 
L 169.812943 160.718797 
L 167.23359 170.255639 
L 164.654237 129.383459 
L 162.074884 153.906767 
L 159.495532 167.530827 
L 156.916179 119.846617 
L 154.336826 123.933835 
L 151.757473 118.484211 
L 149.17812 137.557895 
L 146.598767 113.034586 
L 144.019414 145.732331 
L 141.440062 99.410526 
L 138.860709 91.23609 
L 136.281356 91.23609 
L 133.702003 95.323308 
L 131.12265 95.323308 
L 128.543297 91.23609 
L 125.963945 88.511278 
L 123.384592 99.410526 
L 120.805239 96.685714 
L 118.225886 102.135338 
L 115.646533 84.42406 
L 113.06718 47.639098 
L 110.487827 47.639098 
L 107.908475 47.639098 
L 105.329122 47.639098 
L 102.749769 47.639098 
L 100.170416 47.639098 
L 97.591063 47.639098 
L 95.01171 47.639098 
L 92.432357 47.639098 
L 89.853005 47.639098 
L 87.273652 47.639098 
L 84.694299 47.639098 
L 82.114946 47.639098 
L 79.535593 47.639098 
L 76.95624 47.639098 
L 74.376888 47.639098 
L 71.797535 47.639098 
L 69.218182 47.639098 
z
" clip-path="url(#p3190bd4581)" style="fill: #2ca02c"/>
   </g>
   <g id="PolyCollection_4">
    <path d="M 69.218182 47.639098 
L 69.218182 47.639098 
L 71.797535 47.639098 
L 74.376888 47.639098 
L 76.95624 47.639098 
L 79.535593 47.639098 
L 82.114946 47.639098 
L 84.694299 47.639098 
L 87.273652 47.639098 
L 89.853005 47.639098 
L 92.432357 47.639098 
L 95.01171 47.639098 
L 97.591063 47.639098 
L 100.170416 47.639098 
L 102.749769 47.639098 
L 105.329122 47.639098 
L 107.908475 47.639098 
L 110.487827 47.639098 
L 113.06718 47.639098 
L 115.646533 84.42406 
L 118.225886 102.135338 
L 120.805239 96.685714 
L 123.384592 99.410526 
L 125.963945 88.511278 
L 128.543297 91.23609 
L 131.12265 95.323308 
L 133.702003 95.323308 
L 136.281356 91.23609 
L 138.860709 91.23609 
L 141.440062 99.410526 
L 144.019414 145.732331 
L 146.598767 113.034586 
L 149.17812 137.557895 
L 151.757473 118.484211 
L 154.336826 123.933835 
L 156.916179 119.846617 
L 159.495532 167.530827 
L 162.074884 153.906767 
L 164.654237 129.383459 
L 167.23359 170.255639 
L 169.812943 160.718797 
L 172.392296 145.732331 
L 174.971649 130.745865 
L 177.551002 134.833083 
L 180.130354 136.195489 
L 182.709707 134.833083 
L 185.28906 130.745865 
L 187.868413 141.645113 
L 190.447766 159.356391 
L 193.027119 163.443609 
L 195.606471 155.269173 
L 198.185824 183.879699 
L 200.765177 182.517293 
L 203.34453 190.691729 
L 205.923883 204.315789 
L 208.503236 216.577444 
L 211.082589 226.114286 
L 213.661941 212.490226 
L 216.241294 204.315789 
L 218.820647 252 
L 221.4 252 
L 223.979353 252 
L 226.558706 252 
L 229.138059 252 
L 231.717411 252 
L 234.296764 252 
L 236.876117 252 
L 239.45547 252 
L 242.034823 252 
L 244.614176 252 
L 247.193529 252 
L 249.772881 252 
L 252.352234 252 
L 254.931587 252 
L 257.51094 252 
L 260.090293 252 
L 262.669646 252 
L 265.248998 252 
L 267.828351 252 
L 270.407704 252 
L 272.987057 252 
L 275.56641 252 
L 278.145763 252 
L 280.725116 252 
L 283.304468 252 
L 285.883821 252 
L 288.463174 252 
L 291.042527 252 
L 293.62188 252 
L 296.201233 252 
L 298.780586 252 
L 301.359938 252 
L 303.939291 252 
L 306.518644 252 
L 309.097997 252 
L 311.67735 252 
L 314.256703 252 
L 316.836055 252 
L 319.415408 252 
L 321.994761 252 
L 324.574114 252 
L 327.153467 252 
L 329.73282 252 
L 332.312173 252 
L 334.891525 252 
L 337.470878 252 
L 340.050231 252 
L 342.629584 252 
L 345.208937 252 
L 347.78829 252 
L 350.367643 252 
L 352.946995 252 
L 355.526348 252 
L 358.105701 252 
L 360.685054 252 
L 363.264407 252 
L 365.84376 252 
L 368.423112 252 
L 371.002465 252 
L 373.581818 252 
L 373.581818 220.664662 
L 373.581818 220.664662 
L 371.002465 222.027068 
L 368.423112 220.664662 
L 365.84376 222.027068 
L 363.264407 220.664662 
L 360.685054 222.027068 
L 358.105701 220.664662 
L 355.526348 222.027068 
L 352.946995 226.114286 
L 350.367643 220.664662 
L 347.78829 222.027068 
L 345.208937 220.664662 
L 342.629584 223.389474 
L 340.050231 220.664662 
L 337.470878 219.302256 
L 334.891525 217.93985 
L 332.312173 216.577444 
L 329.73282 215.215038 
L 327.153467 211.12782 
L 324.574114 211.12782 
L 321.994761 207.040602 
L 319.415408 207.040602 
L 316.836055 220.664662 
L 314.256703 224.75188 
L 311.67735 222.027068 
L 309.097997 223.389474 
L 306.518644 222.027068 
L 303.939291 224.75188 
L 301.359938 226.114286 
L 298.780586 228.839098 
L 296.201233 228.839098 
L 293.62188 227.476692 
L 291.042527 223.389474 
L 288.463174 216.577444 
L 285.883821 209.765414 
L 283.304468 227.476692 
L 280.725116 226.114286 
L 278.145763 217.93985 
L 275.56641 231.56391 
L 272.987057 239.738346 
L 270.407704 224.75188 
L 267.828351 227.476692 
L 265.248998 226.114286 
L 262.669646 226.114286 
L 260.090293 219.302256 
L 257.51094 228.839098 
L 254.931587 227.476692 
L 252.352234 228.839098 
L 249.772881 226.114286 
L 247.193529 227.476692 
L 244.614176 224.75188 
L 242.034823 222.027068 
L 239.45547 220.664662 
L 236.876117 226.114286 
L 234.296764 224.75188 
L 231.717411 220.664662 
L 229.138059 216.577444 
L 226.558706 208.403008 
L 223.979353 220.664662 
L 221.4 205.678195 
L 218.820647 209.765414 
L 216.241294 166.168421 
L 213.661941 179.792481 
L 211.082589 197.503759 
L 208.503236 167.530827 
L 205.923883 148.457143 
L 203.34453 134.833083 
L 200.765177 106.222556 
L 198.185824 114.396992 
L 195.606471 80.336842 
L 193.027119 85.786466 
L 190.447766 70.8 
L 187.868413 51.726316 
L 185.28906 47.639098 
L 182.709707 47.639098 
L 180.130354 47.639098 
L 177.551002 47.639098 
L 174.971649 47.639098 
L 172.392296 47.639098 
L 169.812943 47.639098 
L 167.23359 47.639098 
L 164.654237 47.639098 
L 162.074884 47.639098 
L 159.495532 47.639098 
L 156.916179 47.639098 
L 154.336826 46.276692 
L 151.757473 47.639098 
L 149.17812 47.639098 
L 146.598767 47.639098 
L 144.019414 47.639098 
L 141.440062 47.639098 
L 138.860709 47.639098 
L 136.281356 47.639098 
L 133.702003 49.001504 
L 131.12265 47.639098 
L 128.543297 47.639098 
L 125.963945 47.639098 
L 123.384592 47.639098 
L 120.805239 49.001504 
L 118.225886 49.001504 
L 115.646533 49.001504 
L 113.06718 47.639098 
L 110.487827 47.639098 
L 107.908475 47.639098 
L 105.329122 47.639098 
L 102.749769 47.639098 
L 100.170416 47.639098 
L 97.591063 47.639098 
L 95.01171 47.639098 
L 92.432357 47.639098 
L 89.853005 47.639098 
L 87.273652 47.639098 
L 84.694299 47.639098 
L 82.114946 47.639098 
L 79.535593 47.639098 
L 76.95624 47.639098 
L 74.376888 47.639098 
L 71.797535 47.639098 
L 69.218182 47.639098 
z
" clip-path="url(#p3190bd4581)" style="fill: #d62728"/>
   </g>
   <g id="PolyCollection_5">
    <path d="M 69.218182 47.639098 
L 69.218182 47.639098 
L 71.797535 47.639098 
L 74.376888 47.639098 
L 76.95624 47.639098 
L 79.535593 47.639098 
L 82.114946 47.639098 
L 84.694299 47.639098 
L 87.273652 47.639098 
L 89.853005 47.639098 
L 92.432357 47.639098 
L 95.01171 47.639098 
L 97.591063 47.639098 
L 100.170416 47.639098 
L 102.749769 47.639098 
L 105.329122 47.639098 
L 107.908475 47.639098 
L 110.487827 47.639098 
L 113.06718 47.639098 
L 115.646533 49.001504 
L 118.225886 49.001504 
L 120.805239 49.001504 
L 123.384592 47.639098 
L 125.963945 47.639098 
L 128.543297 47.639098 
L 131.12265 47.639098 
L 133.702003 49.001504 
L 136.281356 47.639098 
L 138.860709 47.639098 
L 141.440062 47.639098 
L 144.019414 47.639098 
L 146.598767 47.639098 
L 149.17812 47.639098 
L 151.757473 47.639098 
L 154.336826 46.276692 
L 156.916179 47.639098 
L 159.495532 47.639098 
L 162.074884 47.639098 
L 164.654237 47.639098 
L 167.23359 47.639098 
L 169.812943 47.639098 
L 172.392296 47.639098 
L 174.971649 47.639098 
L 177.551002 47.639098 
L 180.130354 47.639098 
L 182.709707 47.639098 
L 185.28906 47.639098 
L 187.868413 51.726316 
L 190.447766 70.8 
L 193.027119 85.786466 
L 195.606471 80.336842 
L 198.185824 114.396992 
L 200.765177 106.222556 
L 203.34453 134.833083 
L 205.923883 148.457143 
L 208.503236 167.530827 
L 211.082589 197.503759 
L 213.661941 179.792481 
L 216.241294 166.168421 
L 218.820647 209.765414 
L 221.4 205.678195 
L 223.979353 220.664662 
L 226.558706 208.403008 
L 229.138059 216.577444 
L 231.717411 220.664662 
L 234.296764 224.75188 
L 236.876117 226.114286 
L 239.45547 220.664662 
L 242.034823 222.027068 
L 244.614176 224.75188 
L 247.193529 227.476692 
L 249.772881 226.114286 
L 252.352234 228.839098 
L 254.931587 227.476692 
L 257.51094 228.839098 
L 260.090293 219.302256 
L 262.669646 226.114286 
L 265.248998 226.114286 
L 267.828351 227.476692 
L 270.407704 224.75188 
L 272.987057 239.738346 
L 275.56641 231.56391 
L 278.145763 217.93985 
L 280.725116 226.114286 
L 283.304468 227.476692 
L 285.883821 209.765414 
L 288.463174 216.577444 
L 291.042527 223.389474 
L 293.62188 227.476692 
L 296.201233 228.839098 
L 298.780586 228.839098 
L 301.359938 226.114286 
L 303.939291 224.75188 
L 306.518644 222.027068 
L 309.097997 223.389474 
L 311.67735 222.027068 
L 314.256703 224.75188 
L 316.836055 220.664662 
L 319.415408 207.040602 
L 321.994761 207.040602 
L 324.574114 211.12782 
L 327.153467 211.12782 
L 329.73282 215.215038 
L 332.312173 216.577444 
L 334.891525 217.93985 
L 337.470878 219.302256 
L 340.050231 220.664662 
L 342.629584 223.389474 
L 345.208937 220.664662 
L 347.78829 222.027068 
L 350.367643 220.664662 
L 352.946995 226.114286 
L 355.526348 222.027068 
L 358.105701 220.664662 
L 360.685054 222.027068 
L 363.264407 220.664662 
L 365.84376 222.027068 
L 368.423112 220.664662 
L 371.002465 222.027068 
L 373.581818 220.664662 
L 373.581818 220.664662 
L 373.581818 220.664662 
L 371.002465 222.027068 
L 368.423112 220.664662 
L 365.84376 222.027068 
L 363.264407 220.664662 
L 360.685054 222.027068 
L 358.105701 220.664662 
L 355.526348 222.027068 
L 352.946995 226.114286 
L 350.367643 220.664662 
L 347.78829 222.027068 
L 345.208937 220.664662 
L 342.629584 223.389474 
L 340.050231 220.664662 
L 337.470878 219.302256 
L 334.891525 217.93985 
L 332.312173 216.577444 
L 329.73282 215.215038 
L 327.153467 211.12782 
L 324.574114 211.12782 
L 321.994761 207.040602 
L 319.415408 207.040602 
L 316.836055 220.664662 
L 314.256703 224.75188 
L 311.67735 201.590977 
L 309.097997 202.953383 
L 306.518644 198.866165 
L 303.939291 207.040602 
L 301.359938 211.12782 
L 298.780586 207.040602 
L 296.201233 209.765414 
L 293.62188 205.678195 
L 291.042527 208.403008 
L 288.463174 201.590977 
L 285.883821 192.054135 
L 283.304468 207.040602 
L 280.725116 213.852632 
L 278.145763 200.228571 
L 275.56641 205.678195 
L 272.987057 216.577444 
L 270.407704 201.590977 
L 267.828351 204.315789 
L 265.248998 204.315789 
L 262.669646 216.577444 
L 260.090293 187.966917 
L 257.51094 198.866165 
L 254.931587 213.852632 
L 252.352234 211.12782 
L 249.772881 207.040602 
L 247.193529 204.315789 
L 244.614176 200.228571 
L 242.034823 193.416541 
L 239.45547 192.054135 
L 236.876117 200.228571 
L 234.296764 198.866165 
L 231.717411 198.866165 
L 229.138059 186.604511 
L 226.558706 166.168421 
L 223.979353 178.430075 
L 221.4 159.356391 
L 218.820647 168.893233 
L 216.241294 129.383459 
L 213.661941 143.007519 
L 211.082589 160.718797 
L 208.503236 148.457143 
L 205.923883 136.195489 
L 203.34453 108.947368 
L 200.765177 81.699248 
L 198.185824 80.336842 
L 195.606471 54.451128 
L 193.027119 47.639098 
L 190.447766 47.639098 
L 187.868413 47.639098 
L 185.28906 47.639098 
L 182.709707 47.639098 
L 180.130354 47.639098 
L 177.551002 47.639098 
L 174.971649 47.639098 
L 172.392296 47.639098 
L 169.812943 47.639098 
L 167.23359 47.639098 
L 164.654237 47.639098 
L 162.074884 47.639098 
L 159.495532 47.639098 
L 156.916179 47.639098 
L 154.336826 46.276692 
L 151.757473 47.639098 
L 149.17812 47.639098 
L 146.598767 47.639098 
L 144.019414 47.639098 
L 141.440062 47.639098 
L 138.860709 47.639098 
L 136.281356 47.639098 
L 133.702003 49.001504 
L 131.12265 47.639098 
L 128.543297 47.639098 
L 125.963945 47.639098 
L 123.384592 47.639098 
L 120.805239 49.001504 
L 118.225886 49.001504 
L 115.646533 49.001504 
L 113.06718 47.639098 
L 110.487827 47.639098 
L 107.908475 47.639098 
L 105.329122 47.639098 
L 102.749769 47.639098 
L 100.170416 47.639098 
L 97.591063 47.639098 
L 95.01171 47.639098 
L 92.432357 47.639098 
L 89.853005 47.639098 
L 87.273652 47.639098 
L 84.694299 47.639098 
L 82.114946 47.639098 
L 79.535593 47.639098 
L 76.95624 47.639098 
L 74.376888 47.639098 
L 71.797535 47.639098 
L 69.218182 47.639098 
z
" clip-path="url(#p3190bd4581)" style="fill: #9467bd"/>
   </g>
   <g id="PolyCollection_6">
    <path d="M 69.218182 47.639098 
L 69.218182 47.639098 
L 71.797535 47.639098 
L 74.376888 47.639098 
L 76.95624 47.639098 
L 79.535593 47.639098 
L 82.114946 47.639098 
L 84.694299 47.639098 
L 87.273652 47.639098 
L 89.853005 47.639098 
L 92.432357 47.639098 
L 95.01171 47.639098 
L 97.591063 47.639098 
L 100.170416 47.639098 
L 102.749769 47.639098 
L 105.329122 47.639098 
L 107.908475 47.639098 
L 110.487827 47.639098 
L 113.06718 47.639098 
L 115.646533 49.001504 
L 118.225886 49.001504 
L 120.805239 49.001504 
L 123.384592 47.639098 
L 125.963945 47.639098 
L 128.543297 47.639098 
L 131.12265 47.639098 
L 133.702003 49.001504 
L 136.281356 47.639098 
L 138.860709 47.639098 
L 141.440062 47.639098 
L 144.019414 47.639098 
L 146.598767 47.639098 
L 149.17812 47.639098 
L 151.757473 47.639098 
L 154.336826 46.276692 
L 156.916179 47.639098 
L 159.495532 47.639098 
L 162.074884 47.639098 
L 164.654237 47.639098 
L 167.23359 47.639098 
L 169.812943 47.639098 
L 172.392296 47.639098 
L 174.971649 47.639098 
L 177.551002 47.639098 
L 180.130354 47.639098 
L 182.709707 47.639098 
L 185.28906 47.639098 
L 187.868413 47.639098 
L 190.447766 47.639098 
L 193.027119 47.639098 
L 195.606471 54.451128 
L 198.185824 80.336842 
L 200.765177 81.699248 
L 203.34453 108.947368 
L 205.923883 136.195489 
L 208.503236 148.457143 
L 211.082589 160.718797 
L 213.661941 143.007519 
L 216.241294 129.383459 
L 218.820647 168.893233 
L 221.4 159.356391 
L 223.979353 178.430075 
L 226.558706 166.168421 
L 229.138059 186.604511 
L 231.717411 198.866165 
L 234.296764 198.866165 
L 236.876117 200.228571 
L 239.45547 192.054135 
L 242.034823 193.416541 
L 244.614176 200.228571 
L 247.193529 204.315789 
L 249.772881 207.040602 
L 252.352234 211.12782 
L 254.931587 213.852632 
L 257.51094 198.866165 
L 260.090293 187.966917 
L 262.669646 216.577444 
L 265.248998 204.315789 
L 267.828351 204.315789 
L 270.407704 201.590977 
L 272.987057 216.577444 
L 275.56641 205.678195 
L 278.145763 200.228571 
L 280.725116 213.852632 
L 283.304468 207.040602 
L 285.883821 192.054135 
L 288.463174 201.590977 
L 291.042527 208.403008 
L 293.62188 205.678195 
L 296.201233 209.765414 
L 298.780586 207.040602 
L 301.359938 211.12782 
L 303.939291 207.040602 
L 306.518644 198.866165 
L 309.097997 202.953383 
L 311.67735 201.590977 
L 314.256703 224.75188 
L 316.836055 220.664662 
L 319.415408 207.040602 
L 321.994761 207.040602 
L 324.574114 211.12782 
L 327.153467 211.12782 
L 329.73282 215.215038 
L 332.312173 216.577444 
L 334.891525 217.93985 
L 337.470878 219.302256 
L 340.050231 220.664662 
L 342.629584 223.389474 
L 345.208937 220.664662 
L 347.78829 222.027068 
L 350.367643 220.664662 
L 352.946995 226.114286 
L 355.526348 222.027068 
L 358.105701 220.664662 
L 360.685054 222.027068 
L 363.264407 220.664662 
L 365.84376 222.027068 
L 368.423112 220.664662 
L 371.002465 222.027068 
L 373.581818 220.664662 
L 373.581818 220.664662 
L 373.581818 220.664662 
L 371.002465 222.027068 
L 368.423112 220.664662 
L 365.84376 222.027068 
L 363.264407 220.664662 
L 360.685054 222.027068 
L 358.105701 220.664662 
L 355.526348 222.027068 
L 352.946995 226.114286 
L 350.367643 220.664662 
L 347.78829 222.027068 
L 345.208937 220.664662 
L 342.629584 223.389474 
L 340.050231 220.664662 
L 337.470878 219.302256 
L 334.891525 217.93985 
L 332.312173 216.577444 
L 329.73282 215.215038 
L 327.153467 211.12782 
L 324.574114 211.12782 
L 321.994761 207.040602 
L 319.415408 207.040602 
L 316.836055 152.544361 
L 314.256703 186.604511 
L 311.67735 168.893233 
L 309.097997 175.705263 
L 306.518644 159.356391 
L 303.939291 177.067669 
L 301.359938 175.705263 
L 298.780586 178.430075 
L 296.201233 179.792481 
L 293.62188 174.342857 
L 291.042527 174.342857 
L 288.463174 167.530827 
L 285.883821 155.269173 
L 283.304468 174.342857 
L 280.725116 182.517293 
L 278.145763 167.530827 
L 275.56641 167.530827 
L 272.987057 174.342857 
L 270.407704 152.544361 
L 267.828351 182.517293 
L 265.248998 155.269173 
L 262.669646 201.590977 
L 260.090293 164.806015 
L 257.51094 171.618045 
L 254.931587 175.705263 
L 252.352234 160.718797 
L 249.772881 175.705263 
L 247.193529 171.618045 
L 244.614176 187.966917 
L 242.034823 177.067669 
L 239.45547 145.732331 
L 236.876117 147.094737 
L 234.296764 177.067669 
L 231.717411 172.980451 
L 229.138059 162.081203 
L 226.558706 118.484211 
L 223.979353 111.67218 
L 221.4 136.195489 
L 218.820647 125.296241 
L 216.241294 88.511278 
L 213.661941 63.98797 
L 211.082589 84.42406 
L 208.503236 83.061654 
L 205.923883 80.336842 
L 203.34453 47.639098 
L 200.765177 47.639098 
L 198.185824 47.639098 
L 195.606471 47.639098 
L 193.027119 47.639098 
L 190.447766 47.639098 
L 187.868413 47.639098 
L 185.28906 47.639098 
L 182.709707 47.639098 
L 180.130354 47.639098 
L 177.551002 47.639098 
L 174.971649 47.639098 
L 172.392296 47.639098 
L 169.812943 47.639098 
L 167.23359 47.639098 
L 164.654237 47.639098 
L 162.074884 47.639098 
L 159.495532 47.639098 
L 156.916179 47.639098 
L 154.336826 46.276692 
L 151.757473 47.639098 
L 149.17812 47.639098 
L 146.598767 47.639098 
L 144.019414 47.639098 
L 141.440062 47.639098 
L 138.860709 47.639098 
L 136.281356 47.639098 
L 133.702003 49.001504 
L 131.12265 47.639098 
L 128.543297 47.639098 
L 125.963945 47.639098 
L 123.384592 47.639098 
L 120.805239 49.001504 
L 118.225886 49.001504 
L 115.646533 49.001504 
L 113.06718 47.639098 
L 110.487827 47.639098 
L 107.908475 47.639098 
L 105.329122 47.639098 
L 102.749769 47.639098 
L 100.170416 47.639098 
L 97.591063 47.639098 
L 95.01171 47.639098 
L 92.432357 47.639098 
L 89.853005 47.639098 
L 87.273652 47.639098 
L 84.694299 47.639098 
L 82.114946 47.639098 
L 79.535593 47.639098 
L 76.95624 47.639098 
L 74.376888 47.639098 
L 71.797535 47.639098 
L 69.218182 47.639098 
z
" clip-path="url(#p3190bd4581)" style="fill: #8c564b"/>
   </g>
   <g id="PolyCollection_7">
    <path d="M 69.218182 47.639098 
L 69.218182 47.639098 
L 71.797535 47.639098 
L 74.376888 47.639098 
L 76.95624 47.639098 
L 79.535593 47.639098 
L 82.114946 47.639098 
L 84.694299 47.639098 
L 87.273652 47.639098 
L 89.853005 47.639098 
L 92.432357 47.639098 
L 95.01171 47.639098 
L 97.591063 47.639098 
L 100.170416 47.639098 
L 102.749769 47.639098 
L 105.329122 47.639098 
L 107.908475 47.639098 
L 110.487827 47.639098 
L 113.06718 47.639098 
L 115.646533 49.001504 
L 118.225886 49.001504 
L 120.805239 49.001504 
L 123.384592 47.639098 
L 125.963945 47.639098 
L 128.543297 47.639098 
L 131.12265 47.639098 
L 133.702003 49.001504 
L 136.281356 47.639098 
L 138.860709 47.639098 
L 141.440062 47.639098 
L 144.019414 47.639098 
L 146.598767 47.639098 
L 149.17812 47.639098 
L 151.757473 47.639098 
L 154.336826 46.276692 
L 156.916179 47.639098 
L 159.495532 47.639098 
L 162.074884 47.639098 
L 164.654237 47.639098 
L 167.23359 47.639098 
L 169.812943 47.639098 
L 172.392296 47.639098 
L 174.971649 47.639098 
L 177.551002 47.639098 
L 180.130354 47.639098 
L 182.709707 47.639098 
L 185.28906 47.639098 
L 187.868413 47.639098 
L 190.447766 47.639098 
L 193.027119 47.639098 
L 195.606471 47.639098 
L 198.185824 47.639098 
L 200.765177 47.639098 
L 203.34453 47.639098 
L 205.923883 80.336842 
L 208.503236 83.061654 
L 211.082589 84.42406 
L 213.661941 63.98797 
L 216.241294 88.511278 
L 218.820647 125.296241 
L 221.4 136.195489 
L 223.979353 111.67218 
L 226.558706 118.484211 
L 229.138059 162.081203 
L 231.717411 172.980451 
L 234.296764 177.067669 
L 236.876117 147.094737 
L 239.45547 145.732331 
L 242.034823 177.067669 
L 244.614176 187.966917 
L 247.193529 171.618045 
L 249.772881 175.705263 
L 252.352234 160.718797 
L 254.931587 175.705263 
L 257.51094 171.618045 
L 260.090293 164.806015 
L 262.669646 201.590977 
L 265.248998 155.269173 
L 267.828351 182.517293 
L 270.407704 152.544361 
L 272.987057 174.342857 
L 275.56641 167.530827 
L 278.145763 167.530827 
L 280.725116 182.517293 
L 283.304468 174.342857 
L 285.883821 155.269173 
L 288.463174 167.530827 
L 291.042527 174.342857 
L 293.62188 174.342857 
L 296.201233 179.792481 
L 298.780586 178.430075 
L 301.359938 175.705263 
L 303.939291 177.067669 
L 306.518644 159.356391 
L 309.097997 175.705263 
L 311.67735 168.893233 
L 314.256703 186.604511 
L 316.836055 152.544361 
L 319.415408 207.040602 
L 321.994761 207.040602 
L 324.574114 211.12782 
L 327.153467 211.12782 
L 329.73282 215.215038 
L 332.312173 216.577444 
L 334.891525 217.93985 
L 337.470878 219.302256 
L 340.050231 220.664662 
L 342.629584 223.389474 
L 345.208937 220.664662 
L 347.78829 222.027068 
L 350.367643 220.664662 
L 352.946995 226.114286 
L 355.526348 222.027068 
L 358.105701 220.664662 
L 360.685054 222.027068 
L 363.264407 220.664662 
L 365.84376 222.027068 
L 368.423112 220.664662 
L 371.002465 222.027068 
L 373.581818 220.664662 
L 373.581818 220.664662 
L 373.581818 220.664662 
L 371.002465 222.027068 
L 368.423112 220.664662 
L 365.84376 222.027068 
L 363.264407 220.664662 
L 360.685054 222.027068 
L 358.105701 220.664662 
L 355.526348 222.027068 
L 352.946995 226.114286 
L 350.367643 220.664662 
L 347.78829 222.027068 
L 345.208937 220.664662 
L 342.629584 223.389474 
L 340.050231 220.664662 
L 337.470878 219.302256 
L 334.891525 217.93985 
L 332.312173 216.577444 
L 329.73282 215.215038 
L 327.153467 211.12782 
L 324.574114 208.403008 
L 321.994761 185.242105 
L 319.415408 179.792481 
L 316.836055 149.819549 
L 314.256703 117.121805 
L 311.67735 104.86015 
L 309.097997 129.383459 
L 306.518644 132.108271 
L 303.939291 159.356391 
L 301.359938 149.819549 
L 298.780586 145.732331 
L 296.201233 147.094737 
L 293.62188 144.369925 
L 291.042527 151.181955 
L 288.463174 151.181955 
L 285.883821 141.645113 
L 283.304468 134.833083 
L 280.725116 151.181955 
L 278.145763 155.269173 
L 275.56641 126.658647 
L 272.987057 128.021053 
L 270.407704 144.369925 
L 267.828351 168.893233 
L 265.248998 152.544361 
L 262.669646 181.154887 
L 260.090293 160.718797 
L 257.51094 153.906767 
L 254.931587 159.356391 
L 252.352234 155.269173 
L 249.772881 151.181955 
L 247.193529 149.819549 
L 244.614176 147.094737 
L 242.034823 140.282707 
L 239.45547 136.195489 
L 236.876117 134.833083 
L 234.296764 133.470677 
L 231.717411 132.108271 
L 229.138059 118.484211 
L 226.558706 91.23609 
L 223.979353 83.061654 
L 221.4 85.786466 
L 218.820647 74.887218 
L 216.241294 55.813534 
L 213.661941 47.639098 
L 211.082589 49.001504 
L 208.503236 49.001504 
L 205.923883 47.639098 
L 203.34453 47.639098 
L 200.765177 47.639098 
L 198.185824 47.639098 
L 195.606471 47.639098 
L 193.027119 47.639098 
L 190.447766 47.639098 
L 187.868413 47.639098 
L 185.28906 47.639098 
L 182.709707 47.639098 
L 180.130354 47.639098 
L 177.551002 47.639098 
L 174.971649 47.639098 
L 172.392296 47.639098 
L 169.812943 47.639098 
L 167.23359 47.639098 
L 164.654237 47.639098 
L 162.074884 47.639098 
L 159.495532 47.639098 
L 156.916179 47.639098 
L 154.336826 46.276692 
L 151.757473 47.639098 
L 149.17812 47.639098 
L 146.598767 47.639098 
L 144.019414 47.639098 
L 141.440062 47.639098 
L 138.860709 47.639098 
L 136.281356 47.639098 
L 133.702003 49.001504 
L 131.12265 47.639098 
L 128.543297 47.639098 
L 125.963945 47.639098 
L 123.384592 47.639098 
L 120.805239 49.001504 
L 118.225886 49.001504 
L 115.646533 49.001504 
L 113.06718 47.639098 
L 110.487827 47.639098 
L 107.908475 47.639098 
L 105.329122 47.639098 
L 102.749769 47.639098 
L 100.170416 47.639098 
L 97.591063 47.639098 
L 95.01171 47.639098 
L 92.432357 47.639098 
L 89.853005 47.639098 
L 87.273652 47.639098 
L 84.694299 47.639098 
L 82.114946 47.639098 
L 79.535593 47.639098 
L 76.95624 47.639098 
L 74.376888 47.639098 
L 71.797535 47.639098 
L 69.218182 47.639098 
z
" clip-path="url(#p3190bd4581)" style="fill: #e377c2"/>
   </g>
   <g id="PolyCollection_8">
    <path d="M 69.218182 47.639098 
L 69.218182 47.639098 
L 71.797535 47.639098 
L 74.376888 47.639098 
L 76.95624 47.639098 
L 79.535593 47.639098 
L 82.114946 47.639098 
L 84.694299 47.639098 
L 87.273652 47.639098 
L 89.853005 47.639098 
L 92.432357 47.639098 
L 95.01171 47.639098 
L 97.591063 47.639098 
L 100.170416 47.639098 
L 102.749769 47.639098 
L 105.329122 47.639098 
L 107.908475 47.639098 
L 110.487827 47.639098 
L 113.06718 47.639098 
L 115.646533 49.001504 
L 118.225886 49.001504 
L 120.805239 49.001504 
L 123.384592 47.639098 
L 125.963945 47.639098 
L 128.543297 47.639098 
L 131.12265 47.639098 
L 133.702003 49.001504 
L 136.281356 47.639098 
L 138.860709 47.639098 
L 141.440062 47.639098 
L 144.019414 47.639098 
L 146.598767 47.639098 
L 149.17812 47.639098 
L 151.757473 47.639098 
L 154.336826 46.276692 
L 156.916179 47.639098 
L 159.495532 47.639098 
L 162.074884 47.639098 
L 164.654237 47.639098 
L 167.23359 47.639098 
L 169.812943 47.639098 
L 172.392296 47.639098 
L 174.971649 47.639098 
L 177.551002 47.639098 
L 180.130354 47.639098 
L 182.709707 47.639098 
L 185.28906 47.639098 
L 187.868413 47.639098 
L 190.447766 47.639098 
L 193.027119 47.639098 
L 195.606471 47.639098 
L 198.185824 47.639098 
L 200.765177 47.639098 
L 203.34453 47.639098 
L 205.923883 47.639098 
L 208.503236 49.001504 
L 211.082589 49.001504 
L 213.661941 47.639098 
L 216.241294 55.813534 
L 218.820647 74.887218 
L 221.4 85.786466 
L 223.979353 83.061654 
L 226.558706 91.23609 
L 229.138059 118.484211 
L 231.717411 132.108271 
L 234.296764 133.470677 
L 236.876117 134.833083 
L 239.45547 136.195489 
L 242.034823 140.282707 
L 244.614176 147.094737 
L 247.193529 149.819549 
L 249.772881 151.181955 
L 252.352234 155.269173 
L 254.931587 159.356391 
L 257.51094 153.906767 
L 260.090293 160.718797 
L 262.669646 181.154887 
L 265.248998 152.544361 
L 267.828351 168.893233 
L 270.407704 144.369925 
L 272.987057 128.021053 
L 275.56641 126.658647 
L 278.145763 155.269173 
L 280.725116 151.181955 
L 283.304468 134.833083 
L 285.883821 141.645113 
L 288.463174 151.181955 
L 291.042527 151.181955 
L 293.62188 144.369925 
L 296.201233 147.094737 
L 298.780586 145.732331 
L 301.359938 149.819549 
L 303.939291 159.356391 
L 306.518644 132.108271 
L 309.097997 129.383459 
L 311.67735 104.86015 
L 314.256703 117.121805 
L 316.836055 149.819549 
L 319.415408 179.792481 
L 321.994761 185.242105 
L 324.574114 208.403008 
L 327.153467 211.12782 
L 329.73282 215.215038 
L 332.312173 216.577444 
L 334.891525 217.93985 
L 337.470878 219.302256 
L 340.050231 220.664662 
L 342.629584 223.389474 
L 345.208937 220.664662 
L 347.78829 222.027068 
L 350.367643 220.664662 
L 352.946995 226.114286 
L 355.526348 222.027068 
L 358.105701 220.664662 
L 360.685054 222.027068 
L 363.264407 220.664662 
L 365.84376 222.027068 
L 368.423112 220.664662 
L 371.002465 222.027068 
L 373.581818 220.664662 
L 373.581818 220.664662 
L 373.581818 220.664662 
L 371.002465 222.027068 
L 368.423112 220.664662 
L 365.84376 222.027068 
L 363.264407 220.664662 
L 360.685054 222.027068 
L 358.105701 220.664662 
L 355.526348 222.027068 
L 352.946995 226.114286 
L 350.367643 220.664662 
L 347.78829 222.027068 
L 345.208937 220.664662 
L 342.629584 223.389474 
L 340.050231 220.664662 
L 337.470878 219.302256 
L 334.891525 217.93985 
L 332.312173 216.577444 
L 329.73282 215.215038 
L 327.153467 211.12782 
L 324.574114 208.403008 
L 321.994761 185.242105 
L 319.415408 179.792481 
L 316.836055 149.819549 
L 314.256703 117.121805 
L 311.67735 104.86015 
L 309.097997 129.383459 
L 306.518644 132.108271 
L 303.939291 159.356391 
L 301.359938 149.819549 
L 298.780586 145.732331 
L 296.201233 147.094737 
L 293.62188 144.369925 
L 291.042527 151.181955 
L 288.463174 151.181955 
L 285.883821 141.645113 
L 283.304468 134.833083 
L 280.725116 151.181955 
L 278.145763 155.269173 
L 275.56641 126.658647 
L 272.987057 128.021053 
L 270.407704 144.369925 
L 267.828351 145.732331 
L 265.248998 134.833083 
L 262.669646 157.993985 
L 260.090293 140.282707 
L 257.51094 129.383459 
L 254.931587 137.557895 
L 252.352234 134.833083 
L 249.772881 130.745865 
L 247.193529 123.933835 
L 244.614176 121.209023 
L 242.034823 117.121805 
L 239.45547 113.034586 
L 236.876117 96.685714 
L 234.296764 106.222556 
L 231.717411 100.772932 
L 229.138059 81.699248 
L 226.558706 53.088722 
L 223.979353 47.639098 
L 221.4 49.001504 
L 218.820647 49.001504 
L 216.241294 47.639098 
L 213.661941 47.639098 
L 211.082589 49.001504 
L 208.503236 49.001504 
L 205.923883 47.639098 
L 203.34453 47.639098 
L 200.765177 47.639098 
L 198.185824 47.639098 
L 195.606471 47.639098 
L 193.027119 47.639098 
L 190.447766 47.639098 
L 187.868413 47.639098 
L 185.28906 47.639098 
L 182.709707 47.639098 
L 180.130354 47.639098 
L 177.551002 47.639098 
L 174.971649 47.639098 
L 172.392296 47.639098 
L 169.812943 47.639098 
L 167.23359 47.639098 
L 164.654237 47.639098 
L 162.074884 47.639098 
L 159.495532 47.639098 
L 156.916179 47.639098 
L 154.336826 46.276692 
L 151.757473 47.639098 
L 149.17812 47.639098 
L 146.598767 47.639098 
L 144.019414 47.639098 
L 141.440062 47.639098 
L 138.860709 47.639098 
L 136.281356 47.639098 
L 133.702003 49.001504 
L 131.12265 47.639098 
L 128.543297 47.639098 
L 125.963945 47.639098 
L 123.384592 47.639098 
L 120.805239 49.001504 
L 118.225886 49.001504 
L 115.646533 49.001504 
L 113.06718 47.639098 
L 110.487827 47.639098 
L 107.908475 47.639098 
L 105.329122 47.639098 
L 102.749769 47.639098 
L 100.170416 47.639098 
L 97.591063 47.639098 
L 95.01171 47.639098 
L 92.432357 47.639098 
L 89.853005 47.639098 
L 87.273652 47.639098 
L 84.694299 47.639098 
L 82.114946 47.639098 
L 79.535593 47.639098 
L 76.95624 47.639098 
L 74.376888 47.639098 
L 71.797535 47.639098 
L 69.218182 47.639098 
z
" clip-path="url(#p3190bd4581)" style="fill: #7f7f7f"/>
   </g>
   <g id="PolyCollection_9">
    <path d="M 69.218182 47.639098 
L 69.218182 47.639098 
L 71.797535 47.639098 
L 74.376888 47.639098 
L 76.95624 47.639098 
L 79.535593 47.639098 
L 82.114946 47.639098 
L 84.694299 47.639098 
L 87.273652 47.639098 
L 89.853005 47.639098 
L 92.432357 47.639098 
L 95.01171 47.639098 
L 97.591063 47.639098 
L 100.170416 47.639098 
L 102.749769 47.639098 
L 105.329122 47.639098 
L 107.908475 47.639098 
L 110.487827 47.639098 
L 113.06718 47.639098 
L 115.646533 49.001504 
L 118.225886 49.001504 
L 120.805239 49.001504 
L 123.384592 47.639098 
L 125.963945 47.639098 
L 128.543297 47.639098 
L 131.12265 47.639098 
L 133.702003 49.001504 
L 136.281356 47.639098 
L 138.860709 47.639098 
L 141.440062 47.639098 
L 144.019414 47.639098 
L 146.598767 47.639098 
L 149.17812 47.639098 
L 151.757473 47.639098 
L 154.336826 46.276692 
L 156.916179 47.639098 
L 159.495532 47.639098 
L 162.074884 47.639098 
L 164.654237 47.639098 
L 167.23359 47.639098 
L 169.812943 47.639098 
L 172.392296 47.639098 
L 174.971649 47.639098 
L 177.551002 47.639098 
L 180.130354 47.639098 
L 182.709707 47.639098 
L 185.28906 47.639098 
L 187.868413 47.639098 
L 190.447766 47.639098 
L 193.027119 47.639098 
L 195.606471 47.639098 
L 198.185824 47.639098 
L 200.765177 47.639098 
L 203.34453 47.639098 
L 205.923883 47.639098 
L 208.503236 49.001504 
L 211.082589 49.001504 
L 213.661941 47.639098 
L 216.241294 47.639098 
L 218.820647 49.001504 
L 221.4 49.001504 
L 223.979353 47.639098 
L 226.558706 53.088722 
L 229.138059 81.699248 
L 231.717411 100.772932 
L 234.296764 106.222556 
L 236.876117 96.685714 
L 239.45547 113.034586 
L 242.034823 117.121805 
L 244.614176 121.209023 
L 247.193529 123.933835 
L 249.772881 130.745865 
L 252.352234 134.833083 
L 254.931587 137.557895 
L 257.51094 129.383459 
L 260.090293 140.282707 
L 262.669646 157.993985 
L 265.248998 134.833083 
L 267.828351 145.732331 
L 270.407704 144.369925 
L 272.987057 128.021053 
L 275.56641 126.658647 
L 278.145763 155.269173 
L 280.725116 151.181955 
L 283.304468 134.833083 
L 285.883821 141.645113 
L 288.463174 151.181955 
L 291.042527 151.181955 
L 293.62188 144.369925 
L 296.201233 147.094737 
L 298.780586 145.732331 
L 301.359938 149.819549 
L 303.939291 159.356391 
L 306.518644 132.108271 
L 309.097997 129.383459 
L 311.67735 104.86015 
L 314.256703 117.121805 
L 316.836055 149.819549 
L 319.415408 179.792481 
L 321.994761 185.242105 
L 324.574114 208.403008 
L 327.153467 211.12782 
L 329.73282 215.215038 
L 332.312173 216.577444 
L 334.891525 217.93985 
L 337.470878 219.302256 
L 340.050231 220.664662 
L 342.629584 223.389474 
L 345.208937 220.664662 
L 347.78829 222.027068 
L 350.367643 220.664662 
L 352.946995 226.114286 
L 355.526348 222.027068 
L 358.105701 220.664662 
L 360.685054 222.027068 
L 363.264407 220.664662 
L 365.84376 222.027068 
L 368.423112 220.664662 
L 371.002465 222.027068 
L 373.581818 220.664662 
L 373.581818 190.691729 
L 373.581818 190.691729 
L 371.002465 190.691729 
L 368.423112 190.691729 
L 365.84376 190.691729 
L 363.264407 190.691729 
L 360.685054 193.416541 
L 358.105701 190.691729 
L 355.526348 193.416541 
L 352.946995 198.866165 
L 350.367643 192.054135 
L 347.78829 192.054135 
L 345.208937 189.329323 
L 342.629584 190.691729 
L 340.050231 186.604511 
L 337.470878 186.604511 
L 334.891525 183.879699 
L 332.312173 183.879699 
L 329.73282 183.879699 
L 327.153467 181.154887 
L 324.574114 171.618045 
L 321.994761 147.094737 
L 319.415408 140.282707 
L 316.836055 119.846617 
L 314.256703 85.786466 
L 311.67735 77.61203 
L 309.097997 104.86015 
L 306.518644 106.222556 
L 303.939291 130.745865 
L 301.359938 123.933835 
L 298.780586 118.484211 
L 296.201233 119.846617 
L 293.62188 118.484211 
L 291.042527 121.209023 
L 288.463174 122.571429 
L 285.883821 113.034586 
L 283.304468 111.67218 
L 280.725116 126.658647 
L 278.145763 129.383459 
L 275.56641 103.497744 
L 272.987057 107.584962 
L 270.407704 121.209023 
L 267.828351 123.933835 
L 265.248998 108.947368 
L 262.669646 129.383459 
L 260.090293 110.309774 
L 257.51094 99.410526 
L 254.931587 108.947368 
L 252.352234 108.947368 
L 249.772881 103.497744 
L 247.193529 93.960902 
L 244.614176 88.511278 
L 242.034823 84.42406 
L 239.45547 80.336842 
L 236.876117 68.075188 
L 234.296764 73.524812 
L 231.717411 73.524812 
L 229.138059 55.813534 
L 226.558706 46.276692 
L 223.979353 47.639098 
L 221.4 49.001504 
L 218.820647 49.001504 
L 216.241294 47.639098 
L 213.661941 47.639098 
L 211.082589 49.001504 
L 208.503236 49.001504 
L 205.923883 47.639098 
L 203.34453 47.639098 
L 200.765177 47.639098 
L 198.185824 47.639098 
L 195.606471 47.639098 
L 193.027119 47.639098 
L 190.447766 47.639098 
L 187.868413 47.639098 
L 185.28906 47.639098 
L 182.709707 47.639098 
L 180.130354 47.639098 
L 177.551002 47.639098 
L 174.971649 47.639098 
L 172.392296 47.639098 
L 169.812943 47.639098 
L 167.23359 47.639098 
L 164.654237 47.639098 
L 162.074884 47.639098 
L 159.495532 47.639098 
L 156.916179 47.639098 
L 154.336826 46.276692 
L 151.757473 47.639098 
L 149.17812 47.639098 
L 146.598767 47.639098 
L 144.019414 47.639098 
L 141.440062 47.639098 
L 138.860709 47.639098 
L 136.281356 47.639098 
L 133.702003 49.001504 
L 131.12265 47.639098 
L 128.543297 47.639098 
L 125.963945 47.639098 
L 123.384592 47.639098 
L 120.805239 49.001504 
L 118.225886 49.001504 
L 115.646533 49.001504 
L 113.06718 47.639098 
L 110.487827 47.639098 
L 107.908475 47.639098 
L 105.329122 47.639098 
L 102.749769 47.639098 
L 100.170416 47.639098 
L 97.591063 47.639098 
L 95.01171 47.639098 
L 92.432357 47.639098 
L 89.853005 47.639098 
L 87.273652 47.639098 
L 84.694299 47.639098 
L 82.114946 47.639098 
L 79.535593 47.639098 
L 76.95624 47.639098 
L 74.376888 47.639098 
L 71.797535 47.639098 
L 69.218182 47.639098 
z
" clip-path="url(#p3190bd4581)" style="fill: #bcbd22"/>
   </g>
   <g id="PolyCollection_10">
    <path d="M 69.218182 47.639098 
L 69.218182 47.639098 
L 71.797535 47.639098 
L 74.376888 47.639098 
L 76.95624 47.639098 
L 79.535593 47.639098 
L 82.114946 47.639098 
L 84.694299 47.639098 
L 87.273652 47.639098 
L 89.853005 47.639098 
L 92.432357 47.639098 
L 95.01171 47.639098 
L 97.591063 47.639098 
L 100.170416 47.639098 
L 102.749769 47.639098 
L 105.329122 47.639098 
L 107.908475 47.639098 
L 110.487827 47.639098 
L 113.06718 47.639098 
L 115.646533 49.001504 
L 118.225886 49.001504 
L 120.805239 49.001504 
L 123.384592 47.639098 
L 125.963945 47.639098 
L 128.543297 47.639098 
L 131.12265 47.639098 
L 133.702003 49.001504 
L 136.281356 47.639098 
L 138.860709 47.639098 
L 141.440062 47.639098 
L 144.019414 47.639098 
L 146.598767 47.639098 
L 149.17812 47.639098 
L 151.757473 47.639098 
L 154.336826 46.276692 
L 156.916179 47.639098 
L 159.495532 47.639098 
L 162.074884 47.639098 
L 164.654237 47.639098 
L 167.23359 47.639098 
L 169.812943 47.639098 
L 172.392296 47.639098 
L 174.971649 47.639098 
L 177.551002 47.639098 
L 180.130354 47.639098 
L 182.709707 47.639098 
L 185.28906 47.639098 
L 187.868413 47.639098 
L 190.447766 47.639098 
L 193.027119 47.639098 
L 195.606471 47.639098 
L 198.185824 47.639098 
L 200.765177 47.639098 
L 203.34453 47.639098 
L 205.923883 47.639098 
L 208.503236 49.001504 
L 211.082589 49.001504 
L 213.661941 47.639098 
L 216.241294 47.639098 
L 218.820647 49.001504 
L 221.4 49.001504 
L 223.979353 47.639098 
L 226.558706 46.276692 
L 229.138059 55.813534 
L 231.717411 73.524812 
L 234.296764 73.524812 
L 236.876117 68.075188 
L 239.45547 80.336842 
L 242.034823 84.42406 
L 244.614176 88.511278 
L 247.193529 93.960902 
L 249.772881 103.497744 
L 252.352234 108.947368 
L 254.931587 108.947368 
L 257.51094 99.410526 
L 260.090293 110.309774 
L 262.669646 129.383459 
L 265.248998 108.947368 
L 267.828351 123.933835 
L 270.407704 121.209023 
L 272.987057 107.584962 
L 275.56641 103.497744 
L 278.145763 129.383459 
L 280.725116 126.658647 
L 283.304468 111.67218 
L 285.883821 113.034586 
L 288.463174 122.571429 
L 291.042527 121.209023 
L 293.62188 118.484211 
L 296.201233 119.846617 
L 298.780586 118.484211 
L 301.359938 123.933835 
L 303.939291 130.745865 
L 306.518644 106.222556 
L 309.097997 104.86015 
L 311.67735 77.61203 
L 314.256703 85.786466 
L 316.836055 119.846617 
L 319.415408 140.282707 
L 321.994761 147.094737 
L 324.574114 171.618045 
L 327.153467 181.154887 
L 329.73282 183.879699 
L 332.312173 183.879699 
L 334.891525 183.879699 
L 337.470878 186.604511 
L 340.050231 186.604511 
L 342.629584 190.691729 
L 345.208937 189.329323 
L 347.78829 192.054135 
L 350.367643 192.054135 
L 352.946995 198.866165 
L 355.526348 193.416541 
L 358.105701 190.691729 
L 360.685054 193.416541 
L 363.264407 190.691729 
L 365.84376 190.691729 
L 368.423112 190.691729 
L 371.002465 190.691729 
L 373.581818 190.691729 
L 373.581818 190.691729 
L 373.581818 190.691729 
L 371.002465 190.691729 
L 368.423112 190.691729 
L 365.84376 190.691729 
L 363.264407 190.691729 
L 360.685054 193.416541 
L 358.105701 190.691729 
L 355.526348 193.416541 
L 352.946995 198.866165 
L 350.367643 192.054135 
L 347.78829 192.054135 
L 345.208937 189.329323 
L 342.629584 190.691729 
L 340.050231 186.604511 
L 337.470878 186.604511 
L 334.891525 183.879699 
L 332.312173 183.879699 
L 329.73282 183.879699 
L 327.153467 181.154887 
L 324.574114 171.618045 
L 321.994761 147.094737 
L 319.415408 140.282707 
L 316.836055 119.846617 
L 314.256703 85.786466 
L 311.67735 77.61203 
L 309.097997 104.86015 
L 306.518644 106.222556 
L 303.939291 106.222556 
L 301.359938 99.410526 
L 298.780586 99.410526 
L 296.201233 99.410526 
L 293.62188 98.04812 
L 291.042527 100.772932 
L 288.463174 102.135338 
L 285.883821 93.960902 
L 283.304468 87.148872 
L 280.725116 92.598496 
L 278.145763 100.772932 
L 275.56641 83.061654 
L 272.987057 83.061654 
L 270.407704 98.04812 
L 267.828351 104.86015 
L 265.248998 93.960902 
L 262.669646 121.209023 
L 260.090293 92.598496 
L 257.51094 89.873684 
L 254.931587 77.61203 
L 252.352234 73.524812 
L 249.772881 72.162406 
L 247.193529 70.8 
L 244.614176 63.98797 
L 242.034823 62.625564 
L 239.45547 61.263158 
L 236.876117 54.451128 
L 234.296764 61.263158 
L 231.717411 50.36391 
L 229.138059 47.639098 
L 226.558706 46.276692 
L 223.979353 47.639098 
L 221.4 49.001504 
L 218.820647 49.001504 
L 216.241294 47.639098 
L 213.661941 47.639098 
L 211.082589 49.001504 
L 208.503236 49.001504 
L 205.923883 47.639098 
L 203.34453 47.639098 
L 200.765177 47.639098 
L 198.185824 47.639098 
L 195.606471 47.639098 
L 193.027119 47.639098 
L 190.447766 47.639098 
L 187.868413 47.639098 
L 185.28906 47.639098 
L 182.709707 47.639098 
L 180.130354 47.639098 
L 177.551002 47.639098 
L 174.971649 47.639098 
L 172.392296 47.639098 
L 169.812943 47.639098 
L 167.23359 47.639098 
L 164.654237 47.639098 
L 162.074884 47.639098 
L 159.495532 47.639098 
L 156.916179 47.639098 
L 154.336826 46.276692 
L 151.757473 47.639098 
L 149.17812 47.639098 
L 146.598767 47.639098 
L 144.019414 47.639098 
L 141.440062 47.639098 
L 138.860709 47.639098 
L 136.281356 47.639098 
L 133.702003 49.001504 
L 131.12265 47.639098 
L 128.543297 47.639098 
L 125.963945 47.639098 
L 123.384592 47.639098 
L 120.805239 49.001504 
L 118.225886 49.001504 
L 115.646533 49.001504 
L 113.06718 47.639098 
L 110.487827 47.639098 
L 107.908475 47.639098 
L 105.329122 47.639098 
L 102.749769 47.639098 
L 100.170416 47.639098 
L 97.591063 47.639098 
L 95.01171 47.639098 
L 92.432357 47.639098 
L 89.853005 47.639098 
L 87.273652 47.639098 
L 84.694299 47.639098 
L 82.114946 47.639098 
L 79.535593 47.639098 
L 76.95624 47.639098 
L 74.376888 47.639098 
L 71.797535 47.639098 
L 69.218182 47.639098 
z
" clip-path="url(#p3190bd4581)" style="fill: #17becf"/>
   </g>
   <g id="PolyCollection_11">
    <path d="M 69.218182 47.639098 
L 69.218182 47.639098 
L 71.797535 47.639098 
L 74.376888 47.639098 
L 76.95624 47.639098 
L 79.535593 47.639098 
L 82.114946 47.639098 
L 84.694299 47.639098 
L 87.273652 47.639098 
L 89.853005 47.639098 
L 92.432357 47.639098 
L 95.01171 47.639098 
L 97.591063 47.639098 
L 100.170416 47.639098 
L 102.749769 47.639098 
L 105.329122 47.639098 
L 107.908475 47.639098 
L 110.487827 47.639098 
L 113.06718 47.639098 
L 115.646533 49.001504 
L 118.225886 49.001504 
L 120.805239 49.001504 
L 123.384592 47.639098 
L 125.963945 47.639098 
L 128.543297 47.639098 
L 131.12265 47.639098 
L 133.702003 49.001504 
L 136.281356 47.639098 
L 138.860709 47.639098 
L 141.440062 47.639098 
L 144.019414 47.639098 
L 146.598767 47.639098 
L 149.17812 47.639098 
L 151.757473 47.639098 
L 154.336826 46.276692 
L 156.916179 47.639098 
L 159.495532 47.639098 
L 162.074884 47.639098 
L 164.654237 47.639098 
L 167.23359 47.639098 
L 169.812943 47.639098 
L 172.392296 47.639098 
L 174.971649 47.639098 
L 177.551002 47.639098 
L 180.130354 47.639098 
L 182.709707 47.639098 
L 185.28906 47.639098 
L 187.868413 47.639098 
L 190.447766 47.639098 
L 193.027119 47.639098 
L 195.606471 47.639098 
L 198.185824 47.639098 
L 200.765177 47.639098 
L 203.34453 47.639098 
L 205.923883 47.639098 
L 208.503236 49.001504 
L 211.082589 49.001504 
L 213.661941 47.639098 
L 216.241294 47.639098 
L 218.820647 49.001504 
L 221.4 49.001504 
L 223.979353 47.639098 
L 226.558706 46.276692 
L 229.138059 47.639098 
L 231.717411 50.36391 
L 234.296764 61.263158 
L 236.876117 54.451128 
L 239.45547 61.263158 
L 242.034823 62.625564 
L 244.614176 63.98797 
L 247.193529 70.8 
L 249.772881 72.162406 
L 252.352234 73.524812 
L 254.931587 77.61203 
L 257.51094 89.873684 
L 260.090293 92.598496 
L 262.669646 121.209023 
L 265.248998 93.960902 
L 267.828351 104.86015 
L 270.407704 98.04812 
L 272.987057 83.061654 
L 275.56641 83.061654 
L 278.145763 100.772932 
L 280.725116 92.598496 
L 283.304468 87.148872 
L 285.883821 93.960902 
L 288.463174 102.135338 
L 291.042527 100.772932 
L 293.62188 98.04812 
L 296.201233 99.410526 
L 298.780586 99.410526 
L 301.359938 99.410526 
L 303.939291 106.222556 
L 306.518644 106.222556 
L 309.097997 104.86015 
L 311.67735 77.61203 
L 314.256703 85.786466 
L 316.836055 119.846617 
L 319.415408 140.282707 
L 321.994761 147.094737 
L 324.574114 171.618045 
L 327.153467 181.154887 
L 329.73282 183.879699 
L 332.312173 183.879699 
L 334.891525 183.879699 
L 337.470878 186.604511 
L 340.050231 186.604511 
L 342.629584 190.691729 
L 345.208937 189.329323 
L 347.78829 192.054135 
L 350.367643 192.054135 
L 352.946995 198.866165 
L 355.526348 193.416541 
L 358.105701 190.691729 
L 360.685054 193.416541 
L 363.264407 190.691729 
L 365.84376 190.691729 
L 368.423112 190.691729 
L 371.002465 190.691729 
L 373.581818 190.691729 
L 373.581818 149.819549 
L 373.581818 149.819549 
L 371.002465 148.457143 
L 368.423112 149.819549 
L 365.84376 148.457143 
L 363.264407 147.094737 
L 360.685054 152.544361 
L 358.105701 149.819549 
L 355.526348 151.181955 
L 352.946995 152.544361 
L 350.367643 153.906767 
L 347.78829 155.269173 
L 345.208937 153.906767 
L 342.629584 156.631579 
L 340.050231 151.181955 
L 337.470878 152.544361 
L 334.891525 153.906767 
L 332.312173 159.356391 
L 329.73282 167.530827 
L 327.153467 172.980451 
L 324.574114 141.645113 
L 321.994761 113.034586 
L 319.415408 98.04812 
L 316.836055 78.974436 
L 314.256703 68.075188 
L 311.67735 58.538346 
L 309.097997 78.974436 
L 306.518644 80.336842 
L 303.939291 81.699248 
L 301.359938 80.336842 
L 298.780586 78.974436 
L 296.201233 80.336842 
L 293.62188 78.974436 
L 291.042527 78.974436 
L 288.463174 80.336842 
L 285.883821 73.524812 
L 283.304468 70.8 
L 280.725116 73.524812 
L 278.145763 78.974436 
L 275.56641 62.625564 
L 272.987057 57.17594 
L 270.407704 70.8 
L 267.828351 74.887218 
L 265.248998 68.075188 
L 262.669646 89.873684 
L 260.090293 51.726316 
L 257.51094 49.001504 
L 254.931587 47.639098 
L 252.352234 46.276692 
L 249.772881 44.914286 
L 247.193529 46.276692 
L 244.614176 44.914286 
L 242.034823 47.639098 
L 239.45547 47.639098 
L 236.876117 50.36391 
L 234.296764 50.36391 
L 231.717411 47.639098 
L 229.138059 47.639098 
L 226.558706 46.276692 
L 223.979353 47.639098 
L 221.4 49.001504 
L 218.820647 49.001504 
L 216.241294 47.639098 
L 213.661941 47.639098 
L 211.082589 49.001504 
L 208.503236 49.001504 
L 205.923883 47.639098 
L 203.34453 47.639098 
L 200.765177 47.639098 
L 198.185824 47.639098 
L 195.606471 47.639098 
L 193.027119 47.639098 
L 190.447766 47.639098 
L 187.868413 47.639098 
L 185.28906 47.639098 
L 182.709707 47.639098 
L 180.130354 47.639098 
L 177.551002 47.639098 
L 174.971649 47.639098 
L 172.392296 47.639098 
L 169.812943 47.639098 
L 167.23359 47.639098 
L 164.654237 47.639098 
L 162.074884 47.639098 
L 159.495532 47.639098 
L 156.916179 47.639098 
L 154.336826 46.276692 
L 151.757473 47.639098 
L 149.17812 47.639098 
L 146.598767 47.639098 
L 144.019414 47.639098 
L 141.440062 47.639098 
L 138.860709 47.639098 
L 136.281356 47.639098 
L 133.702003 49.001504 
L 131.12265 47.639098 
L 128.543297 47.639098 
L 125.963945 47.639098 
L 123.384592 47.639098 
L 120.805239 49.001504 
L 118.225886 49.001504 
L 115.646533 49.001504 
L 113.06718 47.639098 
L 110.487827 47.639098 
L 107.908475 47.639098 
L 105.329122 47.639098 
L 102.749769 47.639098 
L 100.170416 47.639098 
L 97.591063 47.639098 
L 95.01171 47.639098 
L 92.432357 47.639098 
L 89.853005 47.639098 
L 87.273652 47.639098 
L 84.694299 47.639098 
L 82.114946 47.639098 
L 79.535593 47.639098 
L 76.95624 47.639098 
L 74.376888 47.639098 
L 71.797535 47.639098 
L 69.218182 47.639098 
z
" clip-path="url(#p3190bd4581)" style="fill: #1f77b4"/>
   </g>
   <g id="PolyCollection_12">
    <path d="M 69.218182 47.639098 
L 69.218182 47.639098 
L 71.797535 47.639098 
L 74.376888 47.639098 
L 76.95624 47.639098 
L 79.535593 47.639098 
L 82.114946 47.639098 
L 84.694299 47.639098 
L 87.273652 47.639098 
L 89.853005 47.639098 
L 92.432357 47.639098 
L 95.01171 47.639098 
L 97.591063 47.639098 
L 100.170416 47.639098 
L 102.749769 47.639098 
L 105.329122 47.639098 
L 107.908475 47.639098 
L 110.487827 47.639098 
L 113.06718 47.639098 
L 115.646533 49.001504 
L 118.225886 49.001504 
L 120.805239 49.001504 
L 123.384592 47.639098 
L 125.963945 47.639098 
L 128.543297 47.639098 
L 131.12265 47.639098 
L 133.702003 49.001504 
L 136.281356 47.639098 
L 138.860709 47.639098 
L 141.440062 47.639098 
L 144.019414 47.639098 
L 146.598767 47.639098 
L 149.17812 47.639098 
L 151.757473 47.639098 
L 154.336826 46.276692 
L 156.916179 47.639098 
L 159.495532 47.639098 
L 162.074884 47.639098 
L 164.654237 47.639098 
L 167.23359 47.639098 
L 169.812943 47.639098 
L 172.392296 47.639098 
L 174.971649 47.639098 
L 177.551002 47.639098 
L 180.130354 47.639098 
L 182.709707 47.639098 
L 185.28906 47.639098 
L 187.868413 47.639098 
L 190.447766 47.639098 
L 193.027119 47.639098 
L 195.606471 47.639098 
L 198.185824 47.639098 
L 200.765177 47.639098 
L 203.34453 47.639098 
L 205.923883 47.639098 
L 208.503236 49.001504 
L 211.082589 49.001504 
L 213.661941 47.639098 
L 216.241294 47.639098 
L 218.820647 49.001504 
L 221.4 49.001504 
L 223.979353 47.639098 
L 226.558706 46.276692 
L 229.138059 47.639098 
L 231.717411 47.639098 
L 234.296764 50.36391 
L 236.876117 50.36391 
L 239.45547 47.639098 
L 242.034823 47.639098 
L 244.614176 44.914286 
L 247.193529 46.276692 
L 249.772881 44.914286 
L 252.352234 46.276692 
L 254.931587 47.639098 
L 257.51094 49.001504 
L 260.090293 51.726316 
L 262.669646 89.873684 
L 265.248998 68.075188 
L 267.828351 74.887218 
L 270.407704 70.8 
L 272.987057 57.17594 
L 275.56641 62.625564 
L 278.145763 78.974436 
L 280.725116 73.524812 
L 283.304468 70.8 
L 285.883821 73.524812 
L 288.463174 80.336842 
L 291.042527 78.974436 
L 293.62188 78.974436 
L 296.201233 80.336842 
L 298.780586 78.974436 
L 301.359938 80.336842 
L 303.939291 81.699248 
L 306.518644 80.336842 
L 309.097997 78.974436 
L 311.67735 58.538346 
L 314.256703 68.075188 
L 316.836055 78.974436 
L 319.415408 98.04812 
L 321.994761 113.034586 
L 324.574114 141.645113 
L 327.153467 172.980451 
L 329.73282 167.530827 
L 332.312173 159.356391 
L 334.891525 153.906767 
L 337.470878 152.544361 
L 340.050231 151.181955 
L 342.629584 156.631579 
L 345.208937 153.906767 
L 347.78829 155.269173 
L 350.367643 153.906767 
L 352.946995 152.544361 
L 355.526348 151.181955 
L 358.105701 149.819549 
L 360.685054 152.544361 
L 363.264407 147.094737 
L 365.84376 148.457143 
L 368.423112 149.819549 
L 371.002465 148.457143 
L 373.581818 149.819549 
L 373.581818 114.396992 
L 373.581818 114.396992 
L 371.002465 113.034586 
L 368.423112 113.034586 
L 365.84376 111.67218 
L 363.264407 111.67218 
L 360.685054 118.484211 
L 358.105701 115.759398 
L 355.526348 115.759398 
L 352.946995 115.759398 
L 350.367643 119.846617 
L 347.78829 118.484211 
L 345.208937 118.484211 
L 342.629584 119.846617 
L 340.050231 115.759398 
L 337.470878 114.396992 
L 334.891525 117.121805 
L 332.312173 123.933835 
L 329.73282 132.108271 
L 327.153467 143.007519 
L 324.574114 89.873684 
L 321.994761 59.900752 
L 319.415408 49.001504 
L 316.836055 49.001504 
L 314.256703 46.276692 
L 311.67735 47.639098 
L 309.097997 47.639098 
L 306.518644 47.639098 
L 303.939291 46.276692 
L 301.359938 47.639098 
L 298.780586 49.001504 
L 296.201233 47.639098 
L 293.62188 46.276692 
L 291.042527 44.914286 
L 288.463174 49.001504 
L 285.883821 47.639098 
L 283.304468 47.639098 
L 280.725116 44.914286 
L 278.145763 46.276692 
L 275.56641 49.001504 
L 272.987057 47.639098 
L 270.407704 49.001504 
L 267.828351 49.001504 
L 265.248998 47.639098 
L 262.669646 50.36391 
L 260.090293 49.001504 
L 257.51094 49.001504 
L 254.931587 47.639098 
L 252.352234 46.276692 
L 249.772881 44.914286 
L 247.193529 46.276692 
L 244.614176 44.914286 
L 242.034823 47.639098 
L 239.45547 47.639098 
L 236.876117 50.36391 
L 234.296764 50.36391 
L 231.717411 47.639098 
L 229.138059 47.639098 
L 226.558706 46.276692 
L 223.979353 47.639098 
L 221.4 49.001504 
L 218.820647 49.001504 
L 216.241294 47.639098 
L 213.661941 47.639098 
L 211.082589 49.001504 
L 208.503236 49.001504 
L 205.923883 47.639098 
L 203.34453 47.639098 
L 200.765177 47.639098 
L 198.185824 47.639098 
L 195.606471 47.639098 
L 193.027119 47.639098 
L 190.447766 47.639098 
L 187.868413 47.639098 
L 185.28906 47.639098 
L 182.709707 47.639098 
L 180.130354 47.639098 
L 177.551002 47.639098 
L 174.971649 47.639098 
L 172.392296 47.639098 
L 169.812943 47.639098 
L 167.23359 47.639098 
L 164.654237 47.639098 
L 162.074884 47.639098 
L 159.495532 47.639098 
L 156.916179 47.639098 
L 154.336826 46.276692 
L 151.757473 47.639098 
L 149.17812 47.639098 
L 146.598767 47.639098 
L 144.019414 47.639098 
L 141.440062 47.639098 
L 138.860709 47.639098 
L 136.281356 47.639098 
L 133.702003 49.001504 
L 131.12265 47.639098 
L 128.543297 47.639098 
L 125.963945 47.639098 
L 123.384592 47.639098 
L 120.805239 49.001504 
L 118.225886 49.001504 
L 115.646533 49.001504 
L 113.06718 47.639098 
L 110.487827 47.639098 
L 107.908475 47.639098 
L 105.329122 47.639098 
L 102.749769 47.639098 
L 100.170416 47.639098 
L 97.591063 47.639098 
L 95.01171 47.639098 
L 92.432357 47.639098 
L 89.853005 47.639098 
L 87.273652 47.639098 
L 84.694299 47.639098 
L 82.114946 47.639098 
L 79.535593 47.639098 
L 76.95624 47.639098 
L 74.376888 47.639098 
L 71.797535 47.639098 
L 69.218182 47.639098 
z
" clip-path="url(#p3190bd4581)" style="fill: #ff7f0e"/>
   </g>
   <g id="PolyCollection_13">
    <path d="M 69.218182 47.639098 
L 69.218182 47.639098 
L 71.797535 47.639098 
L 74.376888 47.639098 
L 76.95624 47.639098 
L 79.535593 47.639098 
L 82.114946 47.639098 
L 84.694299 47.639098 
L 87.273652 47.639098 
L 89.853005 47.639098 
L 92.432357 47.639098 
L 95.01171 47.639098 
L 97.591063 47.639098 
L 100.170416 47.639098 
L 102.749769 47.639098 
L 105.329122 47.639098 
L 107.908475 47.639098 
L 110.487827 47.639098 
L 113.06718 47.639098 
L 115.646533 49.001504 
L 118.225886 49.001504 
L 120.805239 49.001504 
L 123.384592 47.639098 
L 125.963945 47.639098 
L 128.543297 47.639098 
L 131.12265 47.639098 
L 133.702003 49.001504 
L 136.281356 47.639098 
L 138.860709 47.639098 
L 141.440062 47.639098 
L 144.019414 47.639098 
L 146.598767 47.639098 
L 149.17812 47.639098 
L 151.757473 47.639098 
L 154.336826 46.276692 
L 156.916179 47.639098 
L 159.495532 47.639098 
L 162.074884 47.639098 
L 164.654237 47.639098 
L 167.23359 47.639098 
L 169.812943 47.639098 
L 172.392296 47.639098 
L 174.971649 47.639098 
L 177.551002 47.639098 
L 180.130354 47.639098 
L 182.709707 47.639098 
L 185.28906 47.639098 
L 187.868413 47.639098 
L 190.447766 47.639098 
L 193.027119 47.639098 
L 195.606471 47.639098 
L 198.185824 47.639098 
L 200.765177 47.639098 
L 203.34453 47.639098 
L 205.923883 47.639098 
L 208.503236 49.001504 
L 211.082589 49.001504 
L 213.661941 47.639098 
L 216.241294 47.639098 
L 218.820647 49.001504 
L 221.4 49.001504 
L 223.979353 47.639098 
L 226.558706 46.276692 
L 229.138059 47.639098 
L 231.717411 47.639098 
L 234.296764 50.36391 
L 236.876117 50.36391 
L 239.45547 47.639098 
L 242.034823 47.639098 
L 244.614176 44.914286 
L 247.193529 46.276692 
L 249.772881 44.914286 
L 252.352234 46.276692 
L 254.931587 47.639098 
L 257.51094 49.001504 
L 260.090293 49.001504 
L 262.669646 50.36391 
L 265.248998 47.639098 
L 267.828351 49.001504 
L 270.407704 49.001504 
L 272.987057 47.639098 
L 275.56641 49.001504 
L 278.145763 46.276692 
L 280.725116 44.914286 
L 283.304468 47.639098 
L 285.883821 47.639098 
L 288.463174 49.001504 
L 291.042527 44.914286 
L 293.62188 46.276692 
L 296.201233 47.639098 
L 298.780586 49.001504 
L 301.359938 47.639098 
L 303.939291 46.276692 
L 306.518644 47.639098 
L 309.097997 47.639098 
L 311.67735 47.639098 
L 314.256703 46.276692 
L 316.836055 49.001504 
L 319.415408 49.001504 
L 321.994761 59.900752 
L 324.574114 89.873684 
L 327.153467 143.007519 
L 329.73282 132.108271 
L 332.312173 123.933835 
L 334.891525 117.121805 
L 337.470878 114.396992 
L 340.050231 115.759398 
L 342.629584 119.846617 
L 345.208937 118.484211 
L 347.78829 118.484211 
L 350.367643 119.846617 
L 352.946995 115.759398 
L 355.526348 115.759398 
L 358.105701 115.759398 
L 360.685054 118.484211 
L 363.264407 111.67218 
L 365.84376 111.67218 
L 368.423112 113.034586 
L 371.002465 113.034586 
L 373.581818 114.396992 
L 373.581818 76.249624 
L 373.581818 76.249624 
L 371.002465 76.249624 
L 368.423112 73.524812 
L 365.84376 73.524812 
L 363.264407 70.8 
L 360.685054 77.61203 
L 358.105701 74.887218 
L 355.526348 72.162406 
L 352.946995 66.712782 
L 350.367643 76.249624 
L 347.78829 76.249624 
L 345.208937 77.61203 
L 342.629584 76.249624 
L 340.050231 78.974436 
L 337.470878 76.249624 
L 334.891525 77.61203 
L 332.312173 81.699248 
L 329.73282 91.23609 
L 327.153467 100.772932 
L 324.574114 57.17594 
L 321.994761 49.001504 
L 319.415408 49.001504 
L 316.836055 49.001504 
L 314.256703 46.276692 
L 311.67735 47.639098 
L 309.097997 47.639098 
L 306.518644 47.639098 
L 303.939291 46.276692 
L 301.359938 47.639098 
L 298.780586 49.001504 
L 296.201233 47.639098 
L 293.62188 46.276692 
L 291.042527 44.914286 
L 288.463174 49.001504 
L 285.883821 47.639098 
L 283.304468 47.639098 
L 280.725116 44.914286 
L 278.145763 46.276692 
L 275.56641 49.001504 
L 272.987057 47.639098 
L 270.407704 49.001504 
L 267.828351 49.001504 
L 265.248998 47.639098 
L 262.669646 50.36391 
L 260.090293 49.001504 
L 257.51094 49.001504 
L 254.931587 47.639098 
L 252.352234 46.276692 
L 249.772881 44.914286 
L 247.193529 46.276692 
L 244.614176 44.914286 
L 242.034823 47.639098 
L 239.45547 47.639098 
L 236.876117 50.36391 
L 234.296764 50.36391 
L 231.717411 47.639098 
L 229.138059 47.639098 
L 226.558706 46.276692 
L 223.979353 47.639098 
L 221.4 49.001504 
L 218.820647 49.001504 
L 216.241294 47.639098 
L 213.661941 47.639098 
L 211.082589 49.001504 
L 208.503236 49.001504 
L 205.923883 47.639098 
L 203.34453 47.639098 
L 200.765177 47.639098 
L 198.185824 47.639098 
L 195.606471 47.639098 
L 193.027119 47.639098 
L 190.447766 47.639098 
L 187.868413 47.639098 
L 185.28906 47.639098 
L 182.709707 47.639098 
L 180.130354 47.639098 
L 177.551002 47.639098 
L 174.971649 47.639098 
L 172.392296 47.639098 
L 169.812943 47.639098 
L 167.23359 47.639098 
L 164.654237 47.639098 
L 162.074884 47.639098 
L 159.495532 47.639098 
L 156.916179 47.639098 
L 154.336826 46.276692 
L 151.757473 47.639098 
L 149.17812 47.639098 
L 146.598767 47.639098 
L 144.019414 47.639098 
L 141.440062 47.639098 
L 138.860709 47.639098 
L 136.281356 47.639098 
L 133.702003 49.001504 
L 131.12265 47.639098 
L 128.543297 47.639098 
L 125.963945 47.639098 
L 123.384592 47.639098 
L 120.805239 49.001504 
L 118.225886 49.001504 
L 115.646533 49.001504 
L 113.06718 47.639098 
L 110.487827 47.639098 
L 107.908475 47.639098 
L 105.329122 47.639098 
L 102.749769 47.639098 
L 100.170416 47.639098 
L 97.591063 47.639098 
L 95.01171 47.639098 
L 92.432357 47.639098 
L 89.853005 47.639098 
L 87.273652 47.639098 
L 84.694299 47.639098 
L 82.114946 47.639098 
L 79.535593 47.639098 
L 76.95624 47.639098 
L 74.376888 47.639098 
L 71.797535 47.639098 
L 69.218182 47.639098 
z
" clip-path="url(#p3190bd4581)" style="fill: #2ca02c"/>
   </g>
   <g id="PolyCollection_14">
    <path d="M 69.218182 47.639098 
L 69.218182 47.639098 
L 71.797535 47.639098 
L 74.376888 47.639098 
L 76.95624 47.639098 
L 79.535593 47.639098 
L 82.114946 47.639098 
L 84.694299 47.639098 
L 87.273652 47.639098 
L 89.853005 47.639098 
L 92.432357 47.639098 
L 95.01171 47.639098 
L 97.591063 47.639098 
L 100.170416 47.639098 
L 102.749769 47.639098 
L 105.329122 47.639098 
L 107.908475 47.639098 
L 110.487827 47.639098 
L 113.06718 47.639098 
L 115.646533 49.001504 
L 118.225886 49.001504 
L 120.805239 49.001504 
L 123.384592 47.639098 
L 125.963945 47.639098 
L 128.543297 47.639098 
L 131.12265 47.639098 
L 133.702003 49.001504 
L 136.281356 47.639098 
L 138.860709 47.639098 
L 141.440062 47.639098 
L 144.019414 47.639098 
L 146.598767 47.639098 
L 149.17812 47.639098 
L 151.757473 47.639098 
L 154.336826 46.276692 
L 156.916179 47.639098 
L 159.495532 47.639098 
L 162.074884 47.639098 
L 164.654237 47.639098 
L 167.23359 47.639098 
L 169.812943 47.639098 
L 172.392296 47.639098 
L 174.971649 47.639098 
L 177.551002 47.639098 
L 180.130354 47.639098 
L 182.709707 47.639098 
L 185.28906 47.639098 
L 187.868413 47.639098 
L 190.447766 47.639098 
L 193.027119 47.639098 
L 195.606471 47.639098 
L 198.185824 47.639098 
L 200.765177 47.639098 
L 203.34453 47.639098 
L 205.923883 47.639098 
L 208.503236 49.001504 
L 211.082589 49.001504 
L 213.661941 47.639098 
L 216.241294 47.639098 
L 218.820647 49.001504 
L 221.4 49.001504 
L 223.979353 47.639098 
L 226.558706 46.276692 
L 229.138059 47.639098 
L 231.717411 47.639098 
L 234.296764 50.36391 
L 236.876117 50.36391 
L 239.45547 47.639098 
L 242.034823 47.639098 
L 244.614176 44.914286 
L 247.193529 46.276692 
L 249.772881 44.914286 
L 252.352234 46.276692 
L 254.931587 47.639098 
L 257.51094 49.001504 
L 260.090293 49.001504 
L 262.669646 50.36391 
L 265.248998 47.639098 
L 267.828351 49.001504 
L 270.407704 49.001504 
L 272.987057 47.639098 
L 275.56641 49.001504 
L 278.145763 46.276692 
L 280.725116 44.914286 
L 283.304468 47.639098 
L 285.883821 47.639098 
L 288.463174 49.001504 
L 291.042527 44.914286 
L 293.62188 46.276692 
L 296.201233 47.639098 
L 298.780586 49.001504 
L 301.359938 47.639098 
L 303.939291 46.276692 
L 306.518644 47.639098 
L 309.097997 47.639098 
L 311.67735 47.639098 
L 314.256703 46.276692 
L 316.836055 49.001504 
L 319.415408 49.001504 
L 321.994761 49.001504 
L 324.574114 57.17594 
L 327.153467 100.772932 
L 329.73282 91.23609 
L 332.312173 81.699248 
L 334.891525 77.61203 
L 337.470878 76.249624 
L 340.050231 78.974436 
L 342.629584 76.249624 
L 345.208937 77.61203 
L 347.78829 76.249624 
L 350.367643 76.249624 
L 352.946995 66.712782 
L 355.526348 72.162406 
L 358.105701 74.887218 
L 360.685054 77.61203 
L 363.264407 70.8 
L 365.84376 73.524812 
L 368.423112 73.524812 
L 371.002465 76.249624 
L 373.581818 76.249624 
L 373.581818 46.276692 
L 373.581818 46.276692 
L 371.002465 46.276692 
L 368.423112 44.914286 
L 365.84376 44.914286 
L 363.264407 44.914286 
L 360.685054 49.001504 
L 358.105701 47.639098 
L 355.526348 49.001504 
L 352.946995 47.639098 
L 350.367643 47.639098 
L 347.78829 50.36391 
L 345.208937 50.36391 
L 342.629584 47.639098 
L 340.050231 49.001504 
L 337.470878 47.639098 
L 334.891525 47.639098 
L 332.312173 47.639098 
L 329.73282 49.001504 
L 327.153467 49.001504 
L 324.574114 47.639098 
L 321.994761 49.001504 
L 319.415408 49.001504 
L 316.836055 49.001504 
L 314.256703 46.276692 
L 311.67735 47.639098 
L 309.097997 47.639098 
L 306.518644 47.639098 
L 303.939291 46.276692 
L 301.359938 47.639098 
L 298.780586 49.001504 
L 296.201233 47.639098 
L 293.62188 46.276692 
L 291.042527 44.914286 
L 288.463174 49.001504 
L 285.883821 47.639098 
L 283.304468 47.639098 
L 280.725116 44.914286 
L 278.145763 46.276692 
L 275.56641 49.001504 
L 272.987057 47.639098 
L 270.407704 49.001504 
L 267.828351 49.001504 
L 265.248998 47.639098 
L 262.669646 50.36391 
L 260.090293 49.001504 
L 257.51094 49.001504 
L 254.931587 47.639098 
L 252.352234 46.276692 
L 249.772881 44.914286 
L 247.193529 46.276692 
L 244.614176 44.914286 
L 242.034823 47.639098 
L 239.45547 47.639098 
L 236.876117 50.36391 
L 234.296764 50.36391 
L 231.717411 47.639098 
L 229.138059 47.639098 
L 226.558706 46.276692 
L 223.979353 47.639098 
L 221.4 49.001504 
L 218.820647 49.001504 
L 216.241294 47.639098 
L 213.661941 47.639098 
L 211.082589 49.001504 
L 208.503236 49.001504 
L 205.923883 47.639098 
L 203.34453 47.639098 
L 200.765177 47.639098 
L 198.185824 47.639098 
L 195.606471 47.639098 
L 193.027119 47.639098 
L 190.447766 47.639098 
L 187.868413 47.639098 
L 185.28906 47.639098 
L 182.709707 47.639098 
L 180.130354 47.639098 
L 177.551002 47.639098 
L 174.971649 47.639098 
L 172.392296 47.639098 
L 169.812943 47.639098 
L 167.23359 47.639098 
L 164.654237 47.639098 
L 162.074884 47.639098 
L 159.495532 47.639098 
L 156.916179 47.639098 
L 154.336826 46.276692 
L 151.757473 47.639098 
L 149.17812 47.639098 
L 146.598767 47.639098 
L 144.019414 47.639098 
L 141.440062 47.639098 
L 138.860709 47.639098 
L 136.281356 47.639098 
L 133.702003 49.001504 
L 131.12265 47.639098 
L 128.543297 47.639098 
L 125.963945 47.639098 
L 123.384592 47.639098 
L 120.805239 49.001504 
L 118.225886 49.001504 
L 115.646533 49.001504 
L 113.06718 47.639098 
L 110.487827 47.639098 
L 107.908475 47.639098 
L 105.329122 47.639098 
L 102.749769 47.639098 
L 100.170416 47.639098 
L 97.591063 47.639098 
L 95.01171 47.639098 
L 92.432357 47.639098 
L 89.853005 47.639098 
L 87.273652 47.639098 
L 84.694299 47.639098 
L 82.114946 47.639098 
L 79.535593 47.639098 
L 76.95624 47.639098 
L 74.376888 47.639098 
L 71.797535 47.639098 
L 69.218182 47.639098 
z
" clip-path="url(#p3190bd4581)" style="fill: #d62728"/>
   </g>
   <g id="matplotlib.axis_1">
    <g id="xtick_1">
     <g id="line2d_1">
      <defs>
       <path id="m9a2df5544b" d="M 0 0 
L 0 3.5 
" style="stroke: #000000; stroke-width: 0.8"/>
      </defs>
      <g>
       <use xlink:href="#m9a2df5544b" x="69.218182" y="252" style="stroke: #000000; stroke-width: 0.8"/>
      </g>
     </g>
     <g id="text_1">
      <!-- 0 -->
      <g transform="translate(66.036932 266.598437)scale(0.1 -0.1)">
       <defs>
        <path id="DejaVuSans-30" d="M 2034 4250 
Q 1547 4250 1301 3770 
Q 1056 3291 1056 2328 
Q 1056 1369 1301 889 
Q 1547 409 2034 409 
Q 2525 409 2770 889 
Q 3016 1369 3016 2328 
Q 3016 3291 2770 3770 
Q 2525 4250 2034 4250 
z
M 2034 4750 
Q 2819 4750 3233 4129 
Q 3647 3509 3647 2328 
Q 3647 1150 3233 529 
Q 2819 -91 2034 -91 
Q 1250 -91 836 529 
Q 422 1150 422 2328 
Q 422 3509 836 4129 
Q 1250 4750 2034 4750 
z
" transform="scale(0.015625)"/>
       </defs>
       <use xlink:href="#DejaVuSans-30"/>
      </g>
     </g>
    </g>
    <g id="xtick_2">
     <g id="line2d_2">
      <g>
       <use xlink:href="#m9a2df5544b" x="120.805239" y="252" style="stroke: #000000; stroke-width: 0.8"/>
      </g>
     </g>
     <g id="text_2">
      <!-- 20 -->
      <g transform="translate(114.442739 266.598437)scale(0.1 -0.1)">
       <defs>
        <path id="DejaVuSans-32" d="M 1228 531 
L 3431 531 
L 3431 0 
L 469 0 
L 469 531 
Q 828 903 1448 1529 
Q 2069 2156 2228 2338 
Q 2531 2678 2651 2914 
Q 2772 3150 2772 3378 
Q 2772 3750 2511 3984 
Q 2250 4219 1831 4219 
Q 1534 4219 1204 4116 
Q 875 4013 500 3803 
L 500 4441 
Q 881 4594 1212 4672 
Q 1544 4750 1819 4750 
Q 2544 4750 2975 4387 
Q 3406 4025 3406 3419 
Q 3406 3131 3298 2873 
Q 3191 2616 2906 2266 
Q 2828 2175 2409 1742 
Q 1991 1309 1228 531 
z
" transform="scale(0.015625)"/>
       </defs>
       <use xlink:href="#DejaVuSans-32"/>
       <use xlink:href="#DejaVuSans-30" x="63.623047"/>
      </g>
     </g>
    </g>
    <g id="xtick_3">
     <g id="line2d_3">
      <g>
       <use xlink:href="#m9a2df5544b" x="172.392296" y="252" style="stroke: #000000; stroke-width: 0.8"/>
      </g>
     </g>
     <g id="text_3">
      <!-- 40 -->
      <g transform="translate(166.029796 266.598437)scale(0.1 -0.1)">
       <defs>
        <path id="DejaVuSans-34" d="M 2419 4116 
L 825 1625 
L 2419 1625 
L 2419 4116 
z
M 2253 4666 
L 3047 4666 
L 3047 1625 
L 3713 1625 
L 3713 1100 
L 3047 1100 
L 3047 0 
L 2419 0 
L 2419 1100 
L 313 1100 
L 313 1709 
L 2253 4666 
z
" transform="scale(0.015625)"/>
       </defs>
       <use xlink:href="#DejaVuSans-34"/>
       <use xlink:href="#DejaVuSans-30" x="63.623047"/>
      </g>
     </g>
    </g>
    <g id="xtick_4">
     <g id="line2d_4">
      <g>
       <use xlink:href="#m9a2df5544b" x="223.979353" y="252" style="stroke: #000000; stroke-width: 0.8"/>
      </g>
     </g>
     <g id="text_4">
      <!-- 60 -->
      <g transform="translate(217.616853 266.598437)scale(0.1 -0.1)">
       <defs>
        <path id="DejaVuSans-36" d="M 2113 2584 
Q 1688 2584 1439 2293 
Q 1191 2003 1191 1497 
Q 1191 994 1439 701 
Q 1688 409 2113 409 
Q 2538 409 2786 701 
Q 3034 994 3034 1497 
Q 3034 2003 2786 2293 
Q 2538 2584 2113 2584 
z
M 3366 4563 
L 3366 3988 
Q 3128 4100 2886 4159 
Q 2644 4219 2406 4219 
Q 1781 4219 1451 3797 
Q 1122 3375 1075 2522 
Q 1259 2794 1537 2939 
Q 1816 3084 2150 3084 
Q 2853 3084 3261 2657 
Q 3669 2231 3669 1497 
Q 3669 778 3244 343 
Q 2819 -91 2113 -91 
Q 1303 -91 875 529 
Q 447 1150 447 2328 
Q 447 3434 972 4092 
Q 1497 4750 2381 4750 
Q 2619 4750 2861 4703 
Q 3103 4656 3366 4563 
z
" transform="scale(0.015625)"/>
       </defs>
       <use xlink:href="#DejaVuSans-36"/>
       <use xlink:href="#DejaVuSans-30" x="63.623047"/>
      </g>
     </g>
    </g>
    <g id="xtick_5">
     <g id="line2d_5">
      <g>
       <use xlink:href="#m9a2df5544b" x="275.56641" y="252" style="stroke: #000000; stroke-width: 0.8"/>
      </g>
     </g>
     <g id="text_5">
      <!-- 80 -->
      <g transform="translate(269.20391 266.598437)scale(0.1 -0.1)">
       <defs>
        <path id="DejaVuSans-38" d="M 2034 2216 
Q 1584 2216 1326 1975 
Q 1069 1734 1069 1313 
Q 1069 891 1326 650 
Q 1584 409 2034 409 
Q 2484 409 2743 651 
Q 3003 894 3003 1313 
Q 3003 1734 2745 1975 
Q 2488 2216 2034 2216 
z
M 1403 2484 
Q 997 2584 770 2862 
Q 544 3141 544 3541 
Q 544 4100 942 4425 
Q 1341 4750 2034 4750 
Q 2731 4750 3128 4425 
Q 3525 4100 3525 3541 
Q 3525 3141 3298 2862 
Q 3072 2584 2669 2484 
Q 3125 2378 3379 2068 
Q 3634 1759 3634 1313 
Q 3634 634 3220 271 
Q 2806 -91 2034 -91 
Q 1263 -91 848 271 
Q 434 634 434 1313 
Q 434 1759 690 2068 
Q 947 2378 1403 2484 
z
M 1172 3481 
Q 1172 3119 1398 2916 
Q 1625 2713 2034 2713 
Q 2441 2713 2670 2916 
Q 2900 3119 2900 3481 
Q 2900 3844 2670 4047 
Q 2441 4250 2034 4250 
Q 1625 4250 1398 4047 
Q 1172 3844 1172 3481 
z
" transform="scale(0.015625)"/>
       </defs>
       <use xlink:href="#DejaVuSans-38"/>
       <use xlink:href="#DejaVuSans-30" x="63.623047"/>
      </g>
     </g>
    </g>
    <g id="xtick_6">
     <g id="line2d_6">
      <g>
       <use xlink:href="#m9a2df5544b" x="327.153467" y="252" style="stroke: #000000; stroke-width: 0.8"/>
      </g>
     </g>
     <g id="text_6">
      <!-- 100 -->
      <g transform="translate(317.609717 266.598437)scale(0.1 -0.1)">
       <defs>
        <path id="DejaVuSans-31" d="M 794 531 
L 1825 531 
L 1825 4091 
L 703 3866 
L 703 4441 
L 1819 4666 
L 2450 4666 
L 2450 531 
L 3481 531 
L 3481 0 
L 794 0 
L 794 531 
z
" transform="scale(0.015625)"/>
       </defs>
       <use xlink:href="#DejaVuSans-31"/>
       <use xlink:href="#DejaVuSans-30" x="63.623047"/>
       <use xlink:href="#DejaVuSans-30" x="127.246094"/>
      </g>
     </g>
    </g>
    <g id="xtick_7">
     <g id="line2d_7">
      <g>
       <use xlink:href="#m9a2df5544b" x="378.740524" y="252" style="stroke: #000000; stroke-width: 0.8"/>
      </g>
     </g>
     <g id="text_7">
      <!-- 120 -->
      <g transform="translate(369.196774 266.598437)scale(0.1 -0.1)">
       <use xlink:href="#DejaVuSans-31"/>
       <use xlink:href="#DejaVuSans-32" x="63.623047"/>
       <use xlink:href="#DejaVuSans-30" x="127.246094"/>
      </g>
     </g>
    </g>
    <g id="text_8">
     <!-- Generations -->
     <g transform="translate(190.902344 280.276563)scale(0.1 -0.1)">
      <defs>
       <path id="DejaVuSans-47" d="M 3809 666 
L 3809 1919 
L 2778 1919 
L 2778 2438 
L 4434 2438 
L 4434 434 
Q 4069 175 3628 42 
Q 3188 -91 2688 -91 
Q 1594 -91 976 548 
Q 359 1188 359 2328 
Q 359 3472 976 4111 
Q 1594 4750 2688 4750 
Q 3144 4750 3555 4637 
Q 3966 4525 4313 4306 
L 4313 3634 
Q 3963 3931 3569 4081 
Q 3175 4231 2741 4231 
Q 1884 4231 1454 3753 
Q 1025 3275 1025 2328 
Q 1025 1384 1454 906 
Q 1884 428 2741 428 
Q 3075 428 3337 486 
Q 3600 544 3809 666 
z
" transform="scale(0.015625)"/>
       <path id="DejaVuSans-65" d="M 3597 1894 
L 3597 1613 
L 953 1613 
Q 991 1019 1311 708 
Q 1631 397 2203 397 
Q 2534 397 2845 478 
Q 3156 559 3463 722 
L 3463 178 
Q 3153 47 2828 -22 
Q 2503 -91 2169 -91 
Q 1331 -91 842 396 
Q 353 884 353 1716 
Q 353 2575 817 3079 
Q 1281 3584 2069 3584 
Q 2775 3584 3186 3129 
Q 3597 2675 3597 1894 
z
M 3022 2063 
Q 3016 2534 2758 2815 
Q 2500 3097 2075 3097 
Q 1594 3097 1305 2825 
Q 1016 2553 972 2059 
L 3022 2063 
z
" transform="scale(0.015625)"/>
       <path id="DejaVuSans-6e" d="M 3513 2113 
L 3513 0 
L 2938 0 
L 2938 2094 
Q 2938 2591 2744 2837 
Q 2550 3084 2163 3084 
Q 1697 3084 1428 2787 
Q 1159 2491 1159 1978 
L 1159 0 
L 581 0 
L 581 3500 
L 1159 3500 
L 1159 2956 
Q 1366 3272 1645 3428 
Q 1925 3584 2291 3584 
Q 2894 3584 3203 3211 
Q 3513 2838 3513 2113 
z
" transform="scale(0.015625)"/>
       <path id="DejaVuSans-72" d="M 2631 2963 
Q 2534 3019 2420 3045 
Q 2306 3072 2169 3072 
Q 1681 3072 1420 2755 
Q 1159 2438 1159 1844 
L 1159 0 
L 581 0 
L 581 3500 
L 1159 3500 
L 1159 2956 
Q 1341 3275 1631 3429 
Q 1922 3584 2338 3584 
Q 2397 3584 2469 3576 
Q 2541 3569 2628 3553 
L 2631 2963 
z
" transform="scale(0.015625)"/>
       <path id="DejaVuSans-61" d="M 2194 1759 
Q 1497 1759 1228 1600 
Q 959 1441 959 1056 
Q 959 750 1161 570 
Q 1363 391 1709 391 
Q 2188 391 2477 730 
Q 2766 1069 2766 1631 
L 2766 1759 
L 2194 1759 
z
M 3341 1997 
L 3341 0 
L 2766 0 
L 2766 531 
Q 2569 213 2275 61 
Q 1981 -91 1556 -91 
Q 1019 -91 701 211 
Q 384 513 384 1019 
Q 384 1609 779 1909 
Q 1175 2209 1959 2209 
L 2766 2209 
L 2766 2266 
Q 2766 2663 2505 2880 
Q 2244 3097 1772 3097 
Q 1472 3097 1187 3025 
Q 903 2953 641 2809 
L 641 3341 
Q 956 3463 1253 3523 
Q 1550 3584 1831 3584 
Q 2591 3584 2966 3190 
Q 3341 2797 3341 1997 
z
" transform="scale(0.015625)"/>
       <path id="DejaVuSans-74" d="M 1172 4494 
L 1172 3500 
L 2356 3500 
L 2356 3053 
L 1172 3053 
L 1172 1153 
Q 1172 725 1289 603 
Q 1406 481 1766 481 
L 2356 481 
L 2356 0 
L 1766 0 
Q 1100 0 847 248 
Q 594 497 594 1153 
L 594 3053 
L 172 3053 
L 172 3500 
L 594 3500 
L 594 4494 
L 1172 4494 
z
" transform="scale(0.015625)"/>
       <path id="DejaVuSans-69" d="M 603 3500 
L 1178 3500 
L 1178 0 
L 603 0 
L 603 3500 
z
M 603 4863 
L 1178 4863 
L 1178 4134 
L 603 4134 
L 603 4863 
z
" transform="scale(0.015625)"/>
       <path id="DejaVuSans-6f" d="M 1959 3097 
Q 1497 3097 1228 2736 
Q 959 2375 959 1747 
Q 959 1119 1226 758 
Q 1494 397 1959 397 
Q 2419 397 2687 759 
Q 2956 1122 2956 1747 
Q 2956 2369 2687 2733 
Q 2419 3097 1959 3097 
z
M 1959 3584 
Q 2709 3584 3137 3096 
Q 3566 2609 3566 1747 
Q 3566 888 3137 398 
Q 2709 -91 1959 -91 
Q 1206 -91 779 398 
Q 353 888 353 1747 
Q 353 2609 779 3096 
Q 1206 3584 1959 3584 
z
" transform="scale(0.015625)"/>
       <path id="DejaVuSans-73" d="M 2834 3397 
L 2834 2853 
Q 2591 2978 2328 3040 
Q 2066 3103 1784 3103 
Q 1356 3103 1142 2972 
Q 928 2841 928 2578 
Q 928 2378 1081 2264 
Q 1234 2150 1697 2047 
L 1894 2003 
Q 2506 1872 2764 1633 
Q 3022 1394 3022 966 
Q 3022 478 2636 193 
Q 2250 -91 1575 -91 
Q 1294 -91 989 -36 
Q 684 19 347 128 
L 347 722 
Q 666 556 975 473 
Q 1284 391 1588 391 
Q 1994 391 2212 530 
Q 2431 669 2431 922 
Q 2431 1156 2273 1281 
Q 2116 1406 1581 1522 
L 1381 1569 
Q 847 1681 609 1914 
Q 372 2147 372 2553 
Q 372 3047 722 3315 
Q 1072 3584 1716 3584 
Q 2034 3584 2315 3537 
Q 2597 3491 2834 3397 
z
" transform="scale(0.015625)"/>
      </defs>
      <use xlink:href="#DejaVuSans-47"/>
      <use xlink:href="#DejaVuSans-65" x="77.490234"/>
      <use xlink:href="#DejaVuSans-6e" x="139.013672"/>
      <use xlink:href="#DejaVuSans-65" x="202.392578"/>
      <use xlink:href="#DejaVuSans-72" x="263.916016"/>
      <use xlink:href="#DejaVuSans-61" x="305.029297"/>
      <use xlink:href="#DejaVuSans-74" x="366.308594"/>
      <use xlink:href="#DejaVuSans-69" x="405.517578"/>
      <use xlink:href="#DejaVuSans-6f" x="433.300781"/>
      <use xlink:href="#DejaVuSans-6e" x="494.482422"/>
      <use xlink:href="#DejaVuSans-73" x="557.861328"/>
     </g>
    </g>
   </g>
   <g id="matplotlib.axis_2">
    <g id="ytick_1">
     <g id="line2d_8">
      <defs>
       <path id="m2d4272c34a" d="M 0 0 
L -3.5 0 
" style="stroke: #000000; stroke-width: 0.8"/>
      </defs>
      <g>
       <use xlink:href="#m2d4272c34a" x="54" y="252" style="stroke: #000000; stroke-width: 0.8"/>
      </g>
     </g>
     <g id="text_9">
      <!-- 0 -->
      <g transform="translate(40.6375 255.799219)scale(0.1 -0.1)">
       <use xlink:href="#DejaVuSans-30"/>
      </g>
     </g>
    </g>
    <g id="ytick_2">
     <g id="line2d_9">
      <g>
       <use xlink:href="#m2d4272c34a" x="54" y="224.75188" style="stroke: #000000; stroke-width: 0.8"/>
      </g>
     </g>
     <g id="text_10">
      <!-- 20 -->
      <g transform="translate(34.275 228.551098)scale(0.1 -0.1)">
       <use xlink:href="#DejaVuSans-32"/>
       <use xlink:href="#DejaVuSans-30" x="63.623047"/>
      </g>
     </g>
    </g>
    <g id="ytick_3">
     <g id="line2d_10">
      <g>
       <use xlink:href="#m2d4272c34a" x="54" y="197.503759" style="stroke: #000000; stroke-width: 0.8"/>
      </g>
     </g>
     <g id="text_11">
      <!-- 40 -->
      <g transform="translate(34.275 201.302978)scale(0.1 -0.1)">
       <use xlink:href="#DejaVuSans-34"/>
       <use xlink:href="#DejaVuSans-30" x="63.623047"/>
      </g>
     </g>
    </g>
    <g id="ytick_4">
     <g id="line2d_11">
      <g>
       <use xlink:href="#m2d4272c34a" x="54" y="170.255639" style="stroke: #000000; stroke-width: 0.8"/>
      </g>
     </g>
     <g id="text_12">
      <!-- 60 -->
      <g transform="translate(34.275 174.054858)scale(0.1 -0.1)">
       <use xlink:href="#DejaVuSans-36"/>
       <use xlink:href="#DejaVuSans-30" x="63.623047"/>
      </g>
     </g>
    </g>
    <g id="ytick_5">
     <g id="line2d_12">
      <g>
       <use xlink:href="#m2d4272c34a" x="54" y="143.007519" style="stroke: #000000; stroke-width: 0.8"/>
      </g>
     </g>
     <g id="text_13">
      <!-- 80 -->
      <g transform="translate(34.275 146.806738)scale(0.1 -0.1)">
       <use xlink:href="#DejaVuSans-38"/>
       <use xlink:href="#DejaVuSans-30" x="63.623047"/>
      </g>
     </g>
    </g>
    <g id="ytick_6">
     <g id="line2d_13">
      <g>
       <use xlink:href="#m2d4272c34a" x="54" y="115.759398" style="stroke: #000000; stroke-width: 0.8"/>
      </g>
     </g>
     <g id="text_14">
      <!-- 100 -->
      <g transform="translate(27.9125 119.558617)scale(0.1 -0.1)">
       <use xlink:href="#DejaVuSans-31"/>
       <use xlink:href="#DejaVuSans-30" x="63.623047"/>
       <use xlink:href="#DejaVuSans-30" x="127.246094"/>
      </g>
     </g>
    </g>
    <g id="ytick_7">
     <g id="line2d_14">
      <g>
       <use xlink:href="#m2d4272c34a" x="54" y="88.511278" style="stroke: #000000; stroke-width: 0.8"/>
      </g>
     </g>
     <g id="text_15">
      <!-- 120 -->
      <g transform="translate(27.9125 92.310497)scale(0.1 -0.1)">
       <use xlink:href="#DejaVuSans-31"/>
       <use xlink:href="#DejaVuSans-32" x="63.623047"/>
       <use xlink:href="#DejaVuSans-30" x="127.246094"/>
      </g>
     </g>
    </g>
    <g id="ytick_8">
     <g id="line2d_15">
      <g>
       <use xlink:href="#m2d4272c34a" x="54" y="61.263158" style="stroke: #000000; stroke-width: 0.8"/>
      </g>
     </g>
     <g id="text_16">
      <!-- 140 -->
      <g transform="translate(27.9125 65.062377)scale(0.1 -0.1)">
       <use xlink:href="#DejaVuSans-31"/>
       <use xlink:href="#DejaVuSans-34" x="63.623047"/>
       <use xlink:href="#DejaVuSans-30" x="127.246094"/>
      </g>
     </g>
    </g>
    <g id="text_17">
     <!-- Size per Species -->
     <g transform="translate(21.832812 184.272969)rotate(-90)scale(0.1 -0.1)">
      <defs>
       <path id="DejaVuSans-53" d="M 3425 4513 
L 3425 3897 
Q 3066 4069 2747 4153 
Q 2428 4238 2131 4238 
Q 1616 4238 1336 4038 
Q 1056 3838 1056 3469 
Q 1056 3159 1242 3001 
Q 1428 2844 1947 2747 
L 2328 2669 
Q 3034 2534 3370 2195 
Q 3706 1856 3706 1288 
Q 3706 609 3251 259 
Q 2797 -91 1919 -91 
Q 1588 -91 1214 -16 
Q 841 59 441 206 
L 441 856 
Q 825 641 1194 531 
Q 1563 422 1919 422 
Q 2459 422 2753 634 
Q 3047 847 3047 1241 
Q 3047 1584 2836 1778 
Q 2625 1972 2144 2069 
L 1759 2144 
Q 1053 2284 737 2584 
Q 422 2884 422 3419 
Q 422 4038 858 4394 
Q 1294 4750 2059 4750 
Q 2388 4750 2728 4690 
Q 3069 4631 3425 4513 
z
" transform="scale(0.015625)"/>
       <path id="DejaVuSans-7a" d="M 353 3500 
L 3084 3500 
L 3084 2975 
L 922 459 
L 3084 459 
L 3084 0 
L 275 0 
L 275 525 
L 2438 3041 
L 353 3041 
L 353 3500 
z
" transform="scale(0.015625)"/>
       <path id="DejaVuSans-20" transform="scale(0.015625)"/>
       <path id="DejaVuSans-70" d="M 1159 525 
L 1159 -1331 
L 581 -1331 
L 581 3500 
L 1159 3500 
L 1159 2969 
Q 1341 3281 1617 3432 
Q 1894 3584 2278 3584 
Q 2916 3584 3314 3078 
Q 3713 2572 3713 1747 
Q 3713 922 3314 415 
Q 2916 -91 2278 -91 
Q 1894 -91 1617 61 
Q 1341 213 1159 525 
z
M 3116 1747 
Q 3116 2381 2855 2742 
Q 2594 3103 2138 3103 
Q 1681 3103 1420 2742 
Q 1159 2381 1159 1747 
Q 1159 1113 1420 752 
Q 1681 391 2138 391 
Q 2594 391 2855 752 
Q 3116 1113 3116 1747 
z
" transform="scale(0.015625)"/>
       <path id="DejaVuSans-63" d="M 3122 3366 
L 3122 2828 
Q 2878 2963 2633 3030 
Q 2388 3097 2138 3097 
Q 1578 3097 1268 2742 
Q 959 2388 959 1747 
Q 959 1106 1268 751 
Q 1578 397 2138 397 
Q 2388 397 2633 464 
Q 2878 531 3122 666 
L 3122 134 
Q 2881 22 2623 -34 
Q 2366 -91 2075 -91 
Q 1284 -91 818 406 
Q 353 903 353 1747 
Q 353 2603 823 3093 
Q 1294 3584 2113 3584 
Q 2378 3584 2631 3529 
Q 2884 3475 3122 3366 
z
" transform="scale(0.015625)"/>
      </defs>
      <use xlink:href="#DejaVuSans-53"/>
      <use xlink:href="#DejaVuSans-69" x="63.476562"/>
      <use xlink:href="#DejaVuSans-7a" x="91.259766"/>
      <use xlink:href="#DejaVuSans-65" x="143.75"/>
      <use xlink:href="#DejaVuSans-20" x="205.273438"/>
      <use xlink:href="#DejaVuSans-70" x="237.060547"/>
      <use xlink:href="#DejaVuSans-65" x="300.537109"/>
      <use xlink:href="#DejaVuSans-72" x="362.060547"/>
      <use xlink:href="#DejaVuSans-20" x="403.173828"/>
      <use xlink:href="#DejaVuSans-53" x="434.960938"/>
      <use xlink:href="#DejaVuSans-70" x="498.4375"/>
      <use xlink:href="#DejaVuSans-65" x="561.914062"/>
      <use xlink:href="#DejaVuSans-63" x="623.4375"/>
      <use xlink:href="#DejaVuSans-69" x="678.417969"/>
      <use xlink:href="#DejaVuSans-65" x="706.201172"/>
      <use xlink:href="#DejaVuSans-73" x="767.724609"/>
     </g>
    </g>
   </g>
   <g id="patch_3">
    <path d="M 54 252 
L 54 34.56 
" style="fill: none; stroke: #000000; stroke-width: 0.8; stroke-linejoin: miter; stroke-linecap: square"/>
   </g>
   <g id="patch_4">
    <path d="M 388.8 252 
L 388.8 34.56 
" style="fill: none; stroke: #000000; stroke-width: 0.8; stroke-linejoin: miter; stroke-linecap: square"/>
   </g>
   <g id="patch_5">
    <path d="M 54 252 
L 388.8 252 
" style="fill: none; stroke: #000000; stroke-width: 0.8; stroke-linejoin: miter; stroke-linecap: square"/>
   </g>
   <g id="patch_6">
    <path d="M 54 34.56 
L 388.8 34.56 
" style="fill: none; stroke: #000000; stroke-width: 0.8; stroke-linejoin: miter; stroke-linecap: square"/>
   </g>
   <g id="text_18">
    <!-- Speciation -->
    <g transform="translate(189.954375 28.56)scale(0.12 -0.12)">
     <use xlink:href="#DejaVuSans-53"/>
     <use xlink:href="#DejaVuSans-70" x="63.476562"/>
     <use xlink:href="#DejaVuSans-65" x="126.953125"/>
     <use xlink:href="#DejaVuSans-63" x="188.476562"/>
     <use xlink:href="#DejaVuSans-69" x="243.457031"/>
     <use xlink:href="#DejaVuSans-61" x="271.240234"/>
     <use xlink:href="#DejaVuSans-74" x="332.519531"/>
     <use xlink:href="#DejaVuSans-69" x="371.728516"/>
     <use xlink:href="#DejaVuSans-6f" x="399.511719"/>
     <use xlink:href="#DejaVuSans-6e" x="460.693359"/>
    </g>
   </g>
  </g>
 </g>
 <defs>
  <clipPath id="p3190bd4581">
   <rect x="54" y="34.56" width="334.8" height="217.44"/>
  </clipPath>
 </defs>
</svg>
