<?xml version="1.0" encoding="UTF-8" standalone="no"?>
<!DOCTYPE svg PUBLIC "-//W3C//DTD SVG 1.1//EN"
 "http://www.w3.org/Graphics/SVG/1.1/DTD/svg11.dtd">
<!-- Generated by graphviz version 2.38.0 (20140413.2041)
 -->
<!-- Title: %3 Pages: 1 -->
<svg width="154pt" height="198pt"
 viewBox="0.00 0.00 154.00 198.41" xmlns="http://www.w3.org/2000/svg" xmlns:xlink="http://www.w3.org/1999/xlink">
<g id="graph0" class="graph" transform="scale(1 1) rotate(0) translate(4 194.409)">
<title>%3</title>
<polygon fill="white" stroke="none" points="-4,4 -4,-194.409 150,-194.409 150,4 -4,4"/>
<!-- A -->
<g id="node1" class="node"><title>A</title>
<polygon fill="lightgray" stroke="black" points="23,-190.409 0,-190.409 0,-172.409 23,-172.409 23,-190.409"/>
<text text-anchor="middle" x="11.5" y="-179.209" font-family="Times New Roman,serif" font-size="9.00">A</text>
</g>
<!-- 114 -->
<g id="node6" class="node"><title>114</title>
<ellipse fill="white" stroke="black" cx="52.5" cy="-115.196" rx="21.4286" ry="21.4286"/>
<text text-anchor="middle" x="52.5" y="-112.996" font-family="Times New Roman,serif" font-size="9.00">114</text>
</g>
<!-- A&#45;&gt;114 -->
<g id="edge4" class="edge"><title>A&#45;&gt;114</title>
<path fill="none" stroke="green" stroke-width="0.231566" d="M16.6927,-172.277C21.541,-164.683 29.0431,-152.934 35.9304,-142.147"/>
<polygon fill="green" stroke="green" stroke-width="0.231566" points="39.0676,-143.737 41.4993,-133.425 33.1677,-139.97 39.0676,-143.737"/>
</g>
<!-- B -->
<g id="node2" class="node"><title>B</title>
<polygon fill="lightgray" stroke="black" points="64,-190.409 41,-190.409 41,-172.409 64,-172.409 64,-190.409"/>
<text text-anchor="middle" x="52.5" y="-179.209" font-family="Times New Roman,serif" font-size="9.00">B</text>
</g>
<!-- B&#45;&gt;114 -->
<g id="edge3" class="edge"><title>B&#45;&gt;114</title>
<path fill="none" stroke="green" stroke-width="0.107845" d="M52.5,-172.277C52.5,-165.734 52.5,-156.105 52.5,-146.665"/>
<polygon fill="green" stroke="green" stroke-width="0.107845" points="56.0001,-146.651 52.5,-136.651 49.0001,-146.651 56.0001,-146.651"/>
</g>
<!-- C -->
<g id="node3" class="node"><title>C</title>
<polygon fill="lightgray" stroke="black" points="105,-190.409 82,-190.409 82,-172.409 105,-172.409 105,-190.409"/>
<text text-anchor="middle" x="93.5" y="-179.209" font-family="Times New Roman,serif" font-size="9.00">C</text>
</g>
<!-- C&#45;&gt;114 -->
<g id="edge1" class="edge"><title>C&#45;&gt;114</title>
<path fill="none" stroke="green" stroke-width="0.176638" d="M88.3073,-172.277C83.459,-164.683 75.9569,-152.934 69.0696,-142.147"/>
<polygon fill="green" stroke="green" stroke-width="0.176638" points="71.8323,-139.97 63.5007,-133.425 65.9324,-143.737 71.8323,-139.97"/>
</g>
<!-- D -->
<g id="node4" class="node"><title>D</title>
<polygon fill="lightgray" stroke="black" points="146,-190.409 123,-190.409 123,-172.409 146,-172.409 146,-190.409"/>
<text text-anchor="middle" x="134.5" y="-179.209" font-family="Times New Roman,serif" font-size="9.00">D</text>
</g>
<!-- output -->
<g id="node5" class="node"><title>output</title>
<ellipse fill="lightblue" stroke="black" cx="52.5" cy="-28.9914" rx="28.9828" ry="28.9828"/>
<text text-anchor="middle" x="52.5" y="-26.7914" font-family="Times New Roman,serif" font-size="9.00">output</text>
</g>
<!-- 114&#45;&gt;output -->
<g id="edge2" class="edge"><title>114&#45;&gt;output</title>
<path fill="none" stroke="red" stroke-width="0.171647" d="M52.5,-93.8124C52.5,-86.116 52.5,-77.0861 52.5,-68.2806"/>
<polygon fill="red" stroke="red" stroke-width="0.171647" points="56.0001,-68.14 52.5,-58.14 49.0001,-68.1401 56.0001,-68.14"/>
</g>
</g>
</svg>
