<?xml version="1.0" encoding="UTF-8" standalone="no"?>
<!DOCTYPE svg PUBLIC "-//W3C//DTD SVG 1.1//EN"
 "http://www.w3.org/Graphics/SVG/1.1/DTD/svg11.dtd">
<!-- Generated by graphviz version 2.38.0 (20140413.2041)
 -->
<!-- Title: %3 Pages: 1 -->
<svg width="183pt" height="301pt"
 viewBox="0.00 0.00 183.06 300.88" xmlns="http://www.w3.org/2000/svg" xmlns:xlink="http://www.w3.org/1999/xlink">
<g id="graph0" class="graph" transform="scale(1 1) rotate(0) translate(4 296.877)">
<title>%3</title>
<polygon fill="white" stroke="none" points="-4,4 -4,-296.877 179.055,-296.877 179.055,4 -4,4"/>
<!-- A -->
<g id="node1" class="node"><title>A</title>
<polygon fill="lightgray" stroke="black" points="29.8063,-292.877 6.80634,-292.877 6.80634,-274.877 29.8063,-274.877 29.8063,-292.877"/>
<text text-anchor="middle" x="18.3063" y="-281.677" font-family="Times New Roman,serif" font-size="9.00">A</text>
</g>
<!-- A XOR B -->
<g id="node3" class="node"><title>A XOR B</title>
<ellipse fill="lightblue" stroke="black" cx="70.3063" cy="-37.4767" rx="37.4533" ry="37.4533"/>
<text text-anchor="middle" x="70.3063" y="-35.2767" font-family="Times New Roman,serif" font-size="9.00">A XOR B</text>
</g>
<!-- A&#45;&gt;A XOR B -->
<g id="edge1" class="edge"><title>A&#45;&gt;A XOR B</title>
<path fill="none" stroke="red" stroke-width="0.303758" d="M15.776,-274.668C8.41305,-249.344 -11.1616,-170.551 10.3063,-110.953 15.6139,-96.2189 25.3615,-82.3554 35.4791,-70.7771"/>
<polygon fill="red" stroke="red" stroke-width="0.303758" points="38.304,-72.8756 42.4926,-63.1439 33.1494,-68.1395 38.304,-72.8756"/>
</g>
<!-- 134 -->
<g id="node5" class="node"><title>134</title>
<ellipse fill="white" stroke="black" cx="44.3063" cy="-217.664" rx="21.4286" ry="21.4286"/>
<text text-anchor="middle" x="44.3063" y="-215.464" font-family="Times New Roman,serif" font-size="9.00">134</text>
</g>
<!-- A&#45;&gt;134 -->
<g id="edge3" class="edge"><title>A&#45;&gt;134</title>
<path fill="none" stroke="green" stroke-width="0.578424" d="M21.5993,-274.745C24.4573,-267.686 28.7696,-257.036 32.8711,-246.906"/>
<polygon fill="green" stroke="green" stroke-width="0.578424" points="36.1755,-248.071 36.6844,-237.488 29.6872,-245.444 36.1755,-248.071"/>
</g>
<!-- B -->
<g id="node2" class="node"><title>B</title>
<polygon fill="lightgray" stroke="black" points="108.806,-292.877 85.8063,-292.877 85.8063,-274.877 108.806,-274.877 108.806,-292.877"/>
<text text-anchor="middle" x="97.3063" y="-281.677" font-family="Times New Roman,serif" font-size="9.00">B</text>
</g>
<!-- B&#45;&gt;A XOR B -->
<g id="edge2" class="edge"><title>B&#45;&gt;A XOR B</title>
<path fill="none" stroke="green" stroke-width="0.203586" stroke-dasharray="1,5" d="M96.408,-274.746C93.1903,-245.619 82.0796,-145.046 75.436,-84.9101"/>
<polygon fill="green" stroke="green" stroke-width="0.203586" points="78.9073,-84.456 74.3303,-74.9009 71.9496,-85.2247 78.9073,-84.456"/>
</g>
<!-- B&#45;&gt;134 -->
<g id="edge4" class="edge"><title>B&#45;&gt;134</title>
<path fill="none" stroke="red" stroke-width="1.17113" d="M90.5939,-274.745C83.9144,-266.652 73.3383,-253.838 63.9806,-242.501"/>
<polygon fill="red" stroke="red" stroke-width="1.17113" points="66.5202,-240.079 57.4553,-234.595 61.1216,-244.535 66.5202,-240.079"/>
</g>
<!-- 1192 -->
<g id="node6" class="node"><title>1192</title>
<ellipse fill="white" stroke="black" cx="150.306" cy="-135.702" rx="25" ry="25"/>
<text text-anchor="middle" x="150.306" y="-133.502" font-family="Times New Roman,serif" font-size="9.00">1192</text>
</g>
<!-- B&#45;&gt;1192 -->
<g id="edge7" class="edge"><title>B&#45;&gt;1192</title>
<path fill="none" stroke="green" stroke-width="0.498675" d="M100.308,-274.599C107.562,-254.591 126.363,-202.739 138.73,-168.631"/>
<polygon fill="green" stroke="green" stroke-width="0.498675" points="142.068,-169.691 142.186,-159.097 135.487,-167.305 142.068,-169.691"/>
</g>
<!-- 1057 -->
<g id="node4" class="node"><title>1057</title>
<ellipse fill="white" stroke="black" cx="44.3063" cy="-135.702" rx="25" ry="25"/>
<text text-anchor="middle" x="44.3063" y="-133.502" font-family="Times New Roman,serif" font-size="9.00">1057</text>
</g>
<!-- 1057&#45;&gt;A XOR B -->
<g id="edge6" class="edge"><title>1057&#45;&gt;A XOR B</title>
<path fill="none" stroke="green" stroke-width="0.742385" d="M50.6002,-111.409C52.8534,-103.07 55.4766,-93.3611 58.0601,-83.7998"/>
<polygon fill="green" stroke="green" stroke-width="0.742385" points="61.491,-84.5198 60.7207,-73.953 54.7333,-82.6938 61.491,-84.5198"/>
</g>
<!-- 134&#45;&gt;1057 -->
<g id="edge5" class="edge"><title>134&#45;&gt;1057</title>
<path fill="none" stroke="green" stroke-width="0.387854" d="M44.3063,-196.072C44.3063,-188.374 44.3063,-179.41 44.3063,-170.817"/>
<polygon fill="green" stroke="green" stroke-width="0.387854" points="47.8064,-170.627 44.3063,-160.627 40.8064,-170.627 47.8064,-170.627"/>
</g>
<!-- 1192&#45;&gt;A XOR B -->
<g id="edge8" class="edge"><title>1192&#45;&gt;A XOR B</title>
<path fill="none" stroke="green" stroke-width="0.340881" d="M134.882,-116.149C125.165,-104.462 112.29,-88.975 100.594,-74.9068"/>
<polygon fill="green" stroke="green" stroke-width="0.340881" points="102.961,-72.2791 93.8763,-66.827 97.5779,-76.7542 102.961,-72.2791"/>
</g>
</g>
</svg>
